<?xml version="1.0" standalone="no"?>
<!DOCTYPE svg PUBLIC "-//W3C//DTD SVG 20010904//EN"
 "http://www.w3.org/TR/2001/REC-SVG-20010904/DTD/svg10.dtd">
<svg version="1.0" xmlns="http://www.w3.org/2000/svg"
 width="700.000000pt" height="700.000000pt" viewBox="0 0 700.000000 700.000000"
 preserveAspectRatio="xMidYMid meet">
<metadata>
Created by potrace 1.14, written by Peter Selinger 2001-2017
</metadata>
<g transform="translate(0.000000,700.000000) scale(0.100000,-0.100000)"
fill="#000000" stroke="none">
<path d="M5315 6736 c-11 -7 -56 -32 -100 -56 -94 -50 -171 -92 -240 -130 -48
-27 -97 -53 -275 -148 -47 -25 -102 -56 -122 -69 -21 -13 -40 -23 -42 -23 -2
0 -145 -77 -318 -171 -172 -94 -322 -175 -333 -180 -11 -5 -33 -17 -50 -27
-16 -10 -68 -39 -115 -64 -47 -25 -110 -59 -140 -76 -30 -16 -111 -60 -180
-97 -68 -37 -138 -75 -155 -85 l-30 -17 0 -366 c-1 -201 -4 -370 -8 -374 -4
-4 -353 -7 -775 -8 l-767 0 -3 -1831 -2 -1831 774 0 c559 0 776 3 778 11 2 6
4 831 3 1833 l-1 1821 31 16 c38 19 148 80 243 134 41 23 75 42 77 42 1 0 62
34 134 75 73 41 135 75 138 75 3 0 17 8 31 19 15 10 54 33 87 50 33 18 67 36
75 41 23 14 235 132 315 175 39 21 75 41 80 45 30 21 148 81 152 77 5 -6 5
-5278 0 -5283 -2 -2 -192 101 -423 229 -230 128 -446 248 -479 267 -33 18
-114 63 -180 100 -181 101 -238 133 -261 144 -14 8 -262 11 -795 11 l-774 0 0
-380 0 -380 1840 0 1840 0 2 3223 c1 1772 -1 3222 -5 3222 -4 0 -16 -6 -27
-14z"/>
</g>
</svg>
