<svg width="236" height="35" viewBox="0 0 236 35" fill="none" xmlns="http://www.w3.org/2000/svg">
<path fill-rule="evenodd" clip-rule="evenodd" d="M36.7732 12.0059H28.9113C29.334 14.663 31.8701 17.1487 34.6598 17.1487H40.9155C41 16.8916 41 16.5487 41 16.2916C41 13.8916 39.1402 12.0059 36.7732 12.0059Z" fill="#808080"/>
<path fill-rule="evenodd" clip-rule="evenodd" d="M29.5876 17.5773V24.0059H33.3918V20.5773H36.7732C38.633 20.5773 40.2392 19.2916 40.7464 17.5773H29.5876Z" fill="#808080"/>
<path fill-rule="evenodd" clip-rule="evenodd" d="M16.0619 12.0059V24.0059H19.4433C19.4433 24.0059 20.2887 24.0059 20.7113 23.1487C22.9938 18.5201 23.6701 17.1487 23.6701 17.1487H24.0928V24.0059H27.8969V12.0059H24.5155C24.5155 12.0059 23.6701 12.0916 23.2474 12.863C21.3031 16.8059 20.2887 18.863 20.2887 18.863H19.866V12.0059H16.0619Z" fill="#808080"/>
<path fill-rule="evenodd" clip-rule="evenodd" d="M0 24.0059V12.0059H3.80412C3.80412 12.0059 4.90309 12.0059 5.49485 13.7201C7.01649 18.263 7.18557 18.863 7.18557 18.863C7.18557 18.863 7.52371 17.7487 8.87629 13.7201C9.46804 12.0059 10.567 12.0059 10.567 12.0059H14.3711V24.0059H10.567V17.5773H10.1443L8.03093 24.0059H6.34021L4.2268 17.5773H3.80412V24.0059H0Z" fill="#808080"/>
<path d="M158.768 24.7829H155.434L157.531 11.2532H160.864L158.768 24.7829ZM152.616 11.2532L149.42 20.5503L149.042 18.5607L147.908 12.447C147.908 12.447 147.77 11.217 146.327 11.217H141.069L141 11.4702C141 11.4702 142.615 11.832 144.505 13.0258L147.427 24.7829H150.898L156.225 11.2532H152.616ZM178.907 24.7829H181.966L179.285 11.2532H176.604C175.367 11.2532 175.058 12.2661 175.058 12.2661L170.109 24.7829H173.58L174.267 22.7571H178.529L178.907 24.7829ZM175.23 19.9715L176.982 14.9069L177.979 19.9715H175.23ZM170.35 14.509L170.831 11.6149C170.831 11.6149 169.353 11.0361 167.806 11.0361C166.157 11.0361 162.205 11.7958 162.205 15.5219C162.205 19.031 166.844 19.0671 166.844 20.9121C166.844 22.7571 162.686 22.4315 161.311 21.2739L160.83 24.3126C160.83 24.3126 162.308 25.0723 164.61 25.0723C166.878 25.0723 170.35 23.8423 170.35 20.4418C170.35 16.9328 165.676 16.6072 165.676 15.0516C165.676 13.4599 168.94 13.677 170.35 14.509Z" fill="#808080"/>
<path d="M203.633 30.6105V28.8663C203.633 28.1977 203.223 27.7616 202.52 27.7616C202.168 27.7616 201.787 27.8779 201.524 28.2558C201.319 27.936 201.026 27.7616 200.587 27.7616C200.294 27.7616 200.001 27.8488 199.766 28.1686V27.8198H199.151V30.6105H199.766V29.0698C199.766 28.5756 200.03 28.343 200.44 28.343C200.85 28.343 201.055 28.6047 201.055 29.0698V30.6105H201.67V29.0698C201.67 28.5756 201.963 28.343 202.344 28.343C202.754 28.343 202.959 28.6047 202.959 29.0698V30.6105H203.633ZM212.743 27.8198H211.747V26.9767H211.131V27.8198H210.575V28.3721H211.131V29.6512C211.131 30.2907 211.395 30.6686 212.098 30.6686C212.362 30.6686 212.655 30.5814 212.86 30.4651L212.684 29.9419C212.508 30.0581 212.303 30.0872 212.157 30.0872C211.864 30.0872 211.747 29.9128 211.747 29.6221V28.3721H212.743V27.8198ZM217.956 27.7616C217.605 27.7616 217.371 27.936 217.224 28.1686V27.8198H216.609V30.6105H217.224V29.0407C217.224 28.5756 217.429 28.314 217.81 28.314C217.927 28.314 218.074 28.343 218.191 28.3721L218.366 27.7907C218.249 27.7616 218.074 27.7616 217.956 27.7616ZM210.077 28.0523C209.784 27.8488 209.374 27.7616 208.935 27.7616C208.232 27.7616 207.763 28.1105 207.763 28.6628C207.763 29.1279 208.114 29.3895 208.73 29.4767L209.022 29.5058C209.345 29.564 209.52 29.6512 209.52 29.7965C209.52 30 209.286 30.1454 208.876 30.1454C208.466 30.1454 208.144 30 207.939 29.8547L207.646 30.3198C207.968 30.5523 208.407 30.6686 208.847 30.6686C209.667 30.6686 210.136 30.2907 210.136 29.7674C210.136 29.2733 209.755 29.0116 209.169 28.9244L208.876 28.8954C208.612 28.8663 208.407 28.8081 208.407 28.6337C208.407 28.4302 208.612 28.314 208.935 28.314C209.286 28.314 209.638 28.4593 209.813 28.5465L210.077 28.0523ZM226.422 27.7616C226.07 27.7616 225.836 27.936 225.689 28.1686V27.8198H225.074V30.6105H225.689V29.0407C225.689 28.5756 225.894 28.314 226.275 28.314C226.392 28.314 226.539 28.343 226.656 28.3721L226.832 27.7907C226.715 27.7616 226.539 27.7616 226.422 27.7616ZM218.572 29.2151C218.572 30.0581 219.157 30.6686 220.065 30.6686C220.475 30.6686 220.768 30.5814 221.061 30.3488L220.768 29.8547C220.534 30.0291 220.3 30.1163 220.036 30.1163C219.538 30.1163 219.187 29.7674 219.187 29.2151C219.187 28.6919 219.538 28.343 220.036 28.314C220.3 28.314 220.534 28.4012 220.768 28.5756L221.061 28.0814C220.768 27.8488 220.475 27.7616 220.065 27.7616C219.157 27.7616 218.572 28.3721 218.572 29.2151ZM224.254 27.8198H223.639V28.1686C223.434 27.907 223.141 27.7616 222.76 27.7616C221.969 27.7616 221.354 28.3721 221.354 29.2151C221.354 30.0581 221.969 30.6686 222.76 30.6686C223.17 30.6686 223.463 30.5233 223.639 30.2616V30.6105H224.254V27.8198ZM221.999 29.2151C221.999 28.7209 222.321 28.314 222.848 28.314C223.346 28.314 223.698 28.6919 223.698 29.2151C223.698 29.7093 223.346 30.1163 222.848 30.1163C222.321 30.0872 221.999 29.7093 221.999 29.2151ZM214.646 27.7616C213.826 27.7616 213.24 28.343 213.24 29.2151C213.24 30.0872 213.826 30.6686 214.676 30.6686C215.086 30.6686 215.496 30.5523 215.818 30.2907L215.525 29.8547C215.291 30.0291 214.998 30.1454 214.705 30.1454C214.324 30.1454 213.943 29.9709 213.856 29.4767H215.935C215.935 29.3895 215.935 29.3314 215.935 29.2442C215.965 28.343 215.437 27.7616 214.646 27.7616ZM214.646 28.2849C215.027 28.2849 215.291 28.5174 215.349 28.9535H213.885C213.943 28.5756 214.207 28.2849 214.646 28.2849ZM229.907 29.2151V26.7151H229.322V28.1686C229.116 27.907 228.824 27.7616 228.443 27.7616C227.652 27.7616 227.037 28.3721 227.037 29.2151C227.037 30.0581 227.652 30.6686 228.443 30.6686C228.853 30.6686 229.146 30.5233 229.322 30.2616V30.6105H229.937V29.2151H229.907ZM227.652 29.2151C227.652 28.7209 227.974 28.314 228.501 28.314C228.999 28.314 229.351 28.6919 229.351 29.2151C229.351 29.7093 228.999 30.1163 228.501 30.1163C227.974 30.0872 227.652 29.7093 227.652 29.2151ZM207.089 27.8198H206.474V28.1686C206.269 27.907 205.976 27.7616 205.595 27.7616C204.804 27.7616 204.189 28.3721 204.189 29.2151C204.189 30.0581 204.804 30.6686 205.595 30.6686C206.005 30.6686 206.298 30.5233 206.474 30.2616V30.6105H207.089V27.8198ZM204.804 29.2151C204.804 28.7209 205.127 28.314 205.654 28.314C206.152 28.314 206.503 28.6919 206.503 29.2151C206.503 29.7093 206.152 30.1163 205.654 30.1163C205.127 30.0872 204.804 29.7093 204.804 29.2151ZM230.933 30.2035C230.962 30.2035 231.02 30.2035 231.05 30.2326C231.079 30.2326 231.108 30.2616 231.138 30.2907C231.167 30.3198 231.196 30.3488 231.196 30.3779C231.196 30.407 231.225 30.4361 231.225 30.4942C231.225 30.5233 231.225 30.5814 231.196 30.6105C231.167 30.6395 231.167 30.6686 231.138 30.6977C231.108 30.7267 231.079 30.7558 231.05 30.7558C231.02 30.7849 230.991 30.7849 230.933 30.7849C230.903 30.7849 230.845 30.7849 230.815 30.7558C230.786 30.7267 230.757 30.7267 230.728 30.6977C230.698 30.6686 230.669 30.6395 230.669 30.6105C230.64 30.5814 230.64 30.5523 230.64 30.4942C230.64 30.4651 230.64 30.407 230.669 30.3779C230.698 30.3488 230.698 30.3198 230.728 30.2907C230.757 30.2616 230.786 30.2326 230.815 30.2326C230.845 30.2035 230.903 30.2035 230.933 30.2035ZM230.933 30.6977C230.962 30.6977 230.991 30.6977 231.02 30.6686C231.05 30.6686 231.079 30.6395 231.079 30.6105C231.108 30.5814 231.108 30.5814 231.138 30.5523C231.138 30.5233 231.167 30.4942 231.167 30.4651C231.167 30.436 231.167 30.407 231.138 30.3779C231.138 30.3488 231.108 30.3198 231.079 30.3198C231.05 30.2907 231.05 30.2907 231.02 30.2616C230.991 30.2616 230.962 30.2326 230.933 30.2326C230.903 30.2326 230.874 30.2326 230.845 30.2616C230.815 30.2616 230.786 30.2907 230.786 30.3198C230.757 30.3488 230.757 30.3488 230.728 30.3779C230.728 30.407 230.698 30.436 230.698 30.4651C230.698 30.4942 230.698 30.5233 230.728 30.5523C230.728 30.5814 230.757 30.6105 230.786 30.6105C230.815 30.6395 230.815 30.6395 230.845 30.6686C230.874 30.6686 230.903 30.6977 230.933 30.6977ZM230.962 30.3488C230.991 30.3488 231.02 30.3488 231.05 30.3779C231.079 30.407 231.079 30.407 231.079 30.436C231.079 30.4651 231.079 30.4651 231.05 30.4942C231.05 30.4942 231.02 30.5233 230.991 30.5233L231.079 30.6105H231.02L230.933 30.5233H230.903V30.6105H230.845V30.3488H230.962ZM230.874 30.3779V30.436H230.962C230.962 30.436 230.962 30.436 230.962 30.407V30.3779H230.874ZM230.552 21.3663V21.0174H230.698V20.9593H230.347V21.0174H230.493V21.3663H230.552ZM231.225 21.3663V20.9593H231.108L230.991 21.25L230.874 20.9593H230.786V21.3663H230.874V21.0465L230.991 21.3081H231.079L231.196 21.0465V21.3663H231.225ZM213.563 23.3721C213.651 23.4302 213.738 23.5174 213.826 23.5756C212.157 24.6802 210.136 25.3198 207.997 25.3198C202.168 25.3198 197.452 20.6395 197.452 14.8547C197.452 9.06977 202.168 4.38953 207.997 4.38953C210.165 4.38953 212.157 5.02907 213.826 6.13372C213.738 6.19186 213.651 6.27907 213.563 6.33721C211.073 8.48837 209.667 11.5698 209.667 14.8547C209.667 18.1395 211.073 21.2209 213.563 23.3721ZM221.003 4.4186C218.835 4.4186 216.843 5.05814 215.174 6.16279C215.262 6.22093 215.349 6.30814 215.437 6.36628C217.927 8.51744 219.333 11.5988 219.333 14.8837C219.333 18.1395 217.898 21.25 215.437 23.4012C215.349 23.4593 215.262 23.5465 215.174 23.6047C216.843 24.7093 218.864 25.3488 221.003 25.3488C226.832 25.3488 231.548 20.6686 231.548 14.8837C231.548 9.09884 226.832 4.4186 221.003 4.4186ZM214.5 6.65698C214.354 6.77326 214.236 6.86047 214.09 6.97674C211.864 8.89535 210.458 11.7151 210.458 14.8837C210.458 18.0233 211.864 20.8721 214.09 22.7907C214.207 22.907 214.354 23.0233 214.5 23.1105C214.646 22.9942 214.764 22.907 214.91 22.7907C217.136 20.8721 218.542 18.0523 218.542 14.8837C218.542 11.7442 217.136 8.89535 214.91 6.97674C214.764 6.86047 214.646 6.74419 214.5 6.65698Z" fill="#808080"/>
<path fill-rule="evenodd" clip-rule="evenodd" d="M125.411 27.3696C125.496 27.3696 125.582 27.3696 125.667 27.3696C125.667 27.5914 125.667 27.8133 125.667 28.0352C125.752 28.0352 125.865 28.0629 125.95 28.0352C126.177 27.841 126.376 27.6192 126.603 27.3973C126.716 27.3696 126.83 27.3973 126.943 27.3973C126.688 27.6746 126.433 27.9242 126.149 28.1738C126.404 28.4512 126.66 28.7007 126.915 28.9503C126.801 28.9503 126.66 28.9781 126.546 28.9503C126.319 28.7285 126.121 28.5344 125.894 28.3125C125.809 28.3125 125.723 28.3125 125.638 28.3125C125.638 28.5344 125.638 28.7562 125.638 28.9781C125.553 28.9781 125.468 28.9781 125.383 28.9781C125.411 28.4234 125.383 27.8965 125.411 27.3696ZM123.596 27.3696C123.681 27.3696 123.766 27.3696 123.851 27.3696C123.851 27.5914 123.851 27.8133 123.851 28.0352C124.163 28.0352 124.475 28.0352 124.787 28.0352C124.787 27.8133 124.787 27.5914 124.787 27.3696C124.872 27.3696 124.957 27.3696 125.043 27.3696C125.043 27.8965 125.043 28.3957 125.043 28.9226C124.957 28.9226 124.872 28.9226 124.787 28.9226C124.787 28.7007 124.787 28.4789 124.787 28.2848C124.475 28.2848 124.163 28.2848 123.851 28.2848C123.851 28.5066 123.851 28.7285 123.851 28.9226C123.766 28.9226 123.681 28.9226 123.596 28.9226C123.596 28.4234 123.596 27.8965 123.596 27.3696ZM122.546 27.7024C122.461 27.9242 122.348 28.1461 122.262 28.3402C122.461 28.3402 122.66 28.3402 122.858 28.3402C122.773 28.1184 122.66 27.9242 122.546 27.7024ZM122.404 27.3696C122.489 27.3696 122.603 27.3696 122.688 27.3696C122.915 27.8965 123.17 28.4234 123.397 28.9226C123.312 28.9226 123.199 28.9226 123.113 28.9226C123.057 28.8117 123 28.7007 122.943 28.5898C122.66 28.5898 122.404 28.5898 122.121 28.5898C122.064 28.7007 122.007 28.8117 121.979 28.9226C121.894 28.9226 121.78 28.9226 121.695 28.9226C121.95 28.4234 122.177 27.8965 122.404 27.3696ZM120.475 28.2848C120.475 28.4234 120.475 28.5621 120.475 28.673C120.645 28.673 120.844 28.673 121.043 28.673C121.128 28.673 121.241 28.673 121.326 28.6175C121.44 28.5066 121.355 28.3125 121.213 28.2848C120.957 28.2848 120.73 28.2848 120.475 28.2848ZM120.22 27.3696C120.645 27.3696 121.043 27.3696 121.468 27.3696C121.468 27.4528 121.468 27.536 121.468 27.6192C121.128 27.6192 120.816 27.6192 120.475 27.6192C120.475 27.7578 120.475 27.8965 120.475 28.0074C120.702 28.0074 120.929 28.0074 121.156 28.0074C121.355 28.0074 121.525 28.1461 121.582 28.3402C121.638 28.5344 121.553 28.7562 121.383 28.8671C121.298 28.9226 121.184 28.9226 121.099 28.9226C120.816 28.9226 120.504 28.9226 120.22 28.9226C120.22 28.4234 120.22 27.8965 120.22 27.3696ZM118.149 27.3696C118.234 27.3696 118.319 27.3696 118.404 27.3696C118.603 27.6192 118.83 27.8688 119.057 28.1184C119.284 27.8688 119.482 27.6192 119.709 27.3696C119.794 27.3696 119.879 27.3696 119.965 27.3696C119.965 27.8965 119.965 28.4234 119.965 28.9226C119.879 28.9226 119.794 28.9226 119.709 28.9226C119.709 28.5344 119.709 28.1738 119.709 27.7856C119.482 28.0352 119.284 28.2848 119.057 28.5066C118.83 28.257 118.631 28.0074 118.404 27.7578C118.404 28.1461 118.404 28.5066 118.404 28.8949C118.319 28.8949 118.234 28.8949 118.149 28.8949C118.149 28.4234 118.149 27.8965 118.149 27.3696ZM114.66 27.3696C114.745 27.3696 114.83 27.3696 114.915 27.3696C114.915 27.5914 114.915 27.8133 114.915 28.0352C115 28.0352 115.085 28.0352 115.199 28.0352C115.426 27.8133 115.624 27.5914 115.851 27.3973C115.965 27.3973 116.078 27.3973 116.191 27.3973C115.936 27.6746 115.652 27.9242 115.397 28.2016C115.652 28.4512 115.908 28.7007 116.163 28.9781C116.05 28.9781 115.936 28.9781 115.823 28.9781C115.624 28.7839 115.426 28.5898 115.227 28.3957C115.142 28.2848 115 28.3402 114.915 28.3402C114.915 28.5621 114.915 28.7839 114.915 29.0058C114.83 29.0058 114.745 29.0058 114.66 29.0058C114.631 28.4234 114.66 27.8965 114.66 27.3696ZM113.241 28.673C113.468 28.673 113.695 28.673 113.894 28.673C113.979 28.673 114.064 28.6175 114.092 28.5621C114.149 28.4512 114.064 28.2848 113.922 28.2848C113.695 28.2848 113.468 28.2848 113.241 28.2848C113.241 28.4234 113.241 28.5621 113.241 28.673ZM113.241 27.6469C113.241 27.7856 113.241 27.8965 113.241 28.0352C113.468 28.0352 113.667 28.0352 113.894 28.0352C113.979 28.0352 114.035 28.0074 114.092 27.952C114.177 27.841 114.092 27.6469 113.922 27.6469C113.695 27.6192 113.468 27.6192 113.241 27.6469ZM112.986 27.3696C113.298 27.3696 113.61 27.3696 113.894 27.3696C114.064 27.3696 114.262 27.4805 114.319 27.6192C114.404 27.7856 114.348 28.0074 114.234 28.1461C114.404 28.3125 114.433 28.5898 114.262 28.7562C114.177 28.8671 114.035 28.9226 113.894 28.9226C113.582 28.9226 113.27 28.9226 112.986 28.9226C112.986 28.4234 112.986 27.8965 112.986 27.3696ZM116.844 27.6192C116.645 27.6746 116.475 27.8688 116.447 28.0906C116.418 28.2848 116.504 28.4789 116.674 28.5898C116.844 28.7285 117.099 28.7562 117.27 28.6453C117.44 28.5621 117.582 28.3957 117.582 28.2016C117.61 28.0074 117.525 27.8133 117.355 27.6746C117.241 27.5914 117.043 27.5637 116.844 27.6192ZM116.872 27.3141C116.418 27.3696 116.078 27.841 116.163 28.2848C116.22 28.7562 116.73 29.089 117.184 28.9781C117.638 28.8949 117.979 28.4234 117.865 27.9797C117.809 27.536 117.326 27.2309 116.872 27.3141ZM111.738 27.6192C111.511 27.6746 111.34 27.8688 111.312 28.0906C111.284 28.3125 111.397 28.5344 111.567 28.6453C111.766 28.7562 112.021 28.7562 112.22 28.6453C112.418 28.5344 112.504 28.2848 112.447 28.0906C112.39 27.7301 112.05 27.5083 111.738 27.6192ZM111.738 27.3141C112.191 27.2309 112.674 27.5637 112.73 28.0074C112.816 28.4234 112.504 28.8671 112.078 28.9503C111.681 29.0613 111.199 28.8394 111.057 28.4512C110.915 28.1184 111.028 27.6746 111.34 27.4528C111.454 27.3973 111.596 27.3419 111.738 27.3141ZM109.44 28.0074C109.496 27.6192 109.865 27.3141 110.291 27.3141C110.518 27.3141 110.745 27.3973 110.887 27.536C110.83 27.5914 110.745 27.6746 110.688 27.7301C110.603 27.6746 110.489 27.6192 110.376 27.5914C110.121 27.5637 109.894 27.7024 109.78 27.8965C109.667 28.1184 109.752 28.4234 109.95 28.5898C110.149 28.7562 110.461 28.7562 110.688 28.5898C110.745 28.6453 110.83 28.7285 110.887 28.7839C110.66 28.9781 110.319 29.0335 110.035 28.9503C109.61 28.8394 109.355 28.4234 109.44 28.0074ZM103.624 19.5768C103.624 20.2701 103.624 20.9911 103.624 21.6844C105.099 21.6844 106.574 21.6844 108.05 21.6844C108.617 21.6567 109.099 21.1021 109.043 20.5474C109.014 20.2978 108.872 20.076 108.702 19.9096C108.475 19.6877 108.163 19.549 107.851 19.5768C106.461 19.5768 105.043 19.5768 103.624 19.5768ZM103.624 15.2782C103.624 15.9715 103.624 16.6926 103.624 17.3859C104.816 17.3859 106.007 17.3859 107.17 17.3859C107.454 17.3859 107.709 17.3027 107.936 17.1363C108.22 16.9145 108.39 16.5262 108.333 16.1657C108.248 15.722 107.823 15.3614 107.369 15.306C107.085 15.2782 106.773 15.306 106.489 15.306C105.525 15.2782 104.56 15.2782 103.624 15.2782ZM100.277 12.1167C102.546 12.1167 104.816 12.1167 107.113 12.1167C107.397 12.1167 107.681 12.1167 107.965 12.1445C109.014 12.2554 110.035 12.7546 110.716 13.5311C111.057 13.9193 111.312 14.3631 111.454 14.8345C111.794 15.9161 111.624 17.1363 110.972 18.0792C111.312 18.3565 111.624 18.6616 111.879 19.0221C112.56 19.9928 112.674 21.3239 112.191 22.4332C111.823 23.3206 111.113 24.0694 110.234 24.4854C109.695 24.735 109.071 24.8737 108.447 24.8737C105.723 24.8737 102.972 24.8737 100.248 24.8737C100.277 20.6306 100.277 16.3598 100.277 12.1167ZM55 12.1167C56.1348 12.1167 57.2695 12.1167 58.4043 12.1167C58.4043 12.5605 58.4043 13.0042 58.4043 13.4756C58.4043 13.7252 58.4043 13.9748 58.4326 14.2244C58.5177 14.9732 58.9149 15.6942 59.5106 16.1657C60.0213 16.6094 60.7021 16.8867 61.4113 16.9422C62.234 16.9976 63.0851 16.7203 63.7092 16.1934C64.3901 15.6388 64.8156 14.7791 64.8156 13.8916C64.8156 13.3092 64.8156 12.6991 64.8156 12.1167C65.9504 12.1167 67.0851 12.1167 68.2199 12.1167C68.2199 12.5882 68.2199 13.0319 68.2199 13.5034C68.2199 14.6404 67.9078 15.7774 67.3121 16.7481C66.9149 17.4136 66.3759 18.0237 65.7801 18.4952C66.6028 19.133 67.2553 19.9928 67.6809 20.9357C67.9929 21.6567 68.1915 22.4055 68.2199 23.182C68.2482 23.7366 68.2199 24.319 68.2199 24.8737C67.0851 24.8737 65.9504 24.8737 64.8156 24.8737C64.8156 24.4854 64.8156 24.1249 64.8156 23.7366C64.8156 23.3484 64.844 22.9324 64.7589 22.5441C64.5603 21.5735 63.8511 20.7138 62.9149 20.3255C62.234 20.0205 61.4397 19.9928 60.7305 20.1869C59.9645 20.4087 59.2837 20.9079 58.8865 21.5735C58.6028 22.045 58.4326 22.5996 58.4326 23.182C58.4326 23.7366 58.4326 24.319 58.4326 24.8737C57.2979 24.8737 56.1631 24.8737 55.0284 24.8737C55.0567 24.0417 54.9716 23.182 55.1418 22.35C55.4255 20.8525 56.2766 19.4381 57.4965 18.4675C56.6738 17.8019 55.9929 16.9422 55.5674 15.9715C55.227 15.2782 55.0284 14.5017 55 13.7252C55 13.1983 55 12.6437 55 12.1167ZM119.965 15.3614C119.34 15.4446 118.716 15.722 118.262 16.1379C117.525 16.7758 117.128 17.7742 117.213 18.7448C117.298 19.7432 117.922 20.6861 118.801 21.1852C119.709 21.7122 120.872 21.7399 121.809 21.2684C122.716 20.8525 123.369 19.9928 123.539 19.0221C123.738 18.0515 123.426 16.9976 122.716 16.2766C122.007 15.611 120.957 15.2228 119.965 15.3614ZM119.284 12.089C120.39 11.9226 121.525 12.0058 122.574 12.3663C123.993 12.8655 125.241 13.8361 126.035 15.1118C126.546 15.9161 126.858 16.859 126.972 17.8019C127 18.1347 127 18.4675 127 18.8003C127 20.8247 127 22.8492 127 24.8737C125.894 24.8737 124.759 24.8737 123.652 24.8737C123.652 24.7627 123.652 24.6518 123.652 24.5409C124.418 24.0972 125.014 23.4593 125.44 22.7105C124.333 23.9862 122.688 24.8182 120.986 24.9569C119.879 25.0401 118.745 24.8737 117.723 24.4299C116.73 23.9862 115.851 23.3206 115.199 22.4887C114.574 21.6844 114.121 20.7415 113.922 19.7432C113.667 18.5229 113.809 17.2195 114.291 16.0825C114.716 15.0564 115.426 14.1412 116.305 13.4479C117.128 12.7268 118.177 12.2831 119.284 12.089ZM90.5177 12.1167C91.2837 11.9226 92.1348 11.9781 92.8723 12.2277C93.7801 12.5327 94.5461 13.1151 95.1702 13.7807C95.9078 14.6127 96.4752 15.611 96.8723 16.6371C97.383 17.9128 97.695 19.244 97.8936 20.6029C98.0922 22.0172 98.1206 23.4593 98.1206 24.8737C96.9858 24.8737 95.8511 24.8737 94.7163 24.8737C94.7163 23.2929 94.6879 21.7122 94.4043 20.1591C94.2057 19.1608 93.922 18.1901 93.4681 17.275C93.2411 16.8313 92.9858 16.4153 92.6454 16.027C92.4184 15.7774 92.1631 15.5556 91.8227 15.4446C91.5957 15.3614 91.3121 15.3892 91.0851 15.4724C90.6312 15.6665 90.3191 16.027 90.0355 16.4153C89.4681 17.2195 89.1277 18.1347 88.844 19.0498C88.305 20.9357 88.2766 22.9047 88.2766 24.8459C87.1418 24.8459 86.0071 24.8459 84.8723 24.8459C84.8723 23.4316 84.9007 22.0172 85.0993 20.6306C85.2979 19.2162 85.6099 17.8296 86.1489 16.4985C86.6028 15.4446 87.1702 14.4185 87.9929 13.5866C88.7021 12.8932 89.5532 12.3386 90.5177 12.1167ZM75.7376 15.3614C75.1986 15.4169 74.6879 15.6388 74.2624 15.9438C73.4113 16.5539 72.9007 17.5523 72.9574 18.5784C72.9858 19.5768 73.5248 20.5474 74.4043 21.1021C75.0567 21.518 75.8794 21.7122 76.6454 21.5735C77.5816 21.4348 78.4326 20.8802 78.9149 20.076C79.2837 19.4658 79.4255 18.7448 79.3404 18.0515C79.227 17.1363 78.6596 16.3043 77.8652 15.8052C77.2411 15.4446 76.4752 15.2782 75.7376 15.3614ZM75.3688 12.0613C76.5887 11.9226 77.8369 12.1167 78.9433 12.6159C79.9078 13.0596 80.7589 13.7252 81.383 14.5295C82.2624 15.6388 82.7731 17.0531 82.7731 18.4397C82.7731 20.5751 82.7731 22.7383 82.7731 24.8737C81.6667 24.8737 80.5319 24.8737 79.4255 24.8737C79.4255 24.7627 79.4255 24.6518 79.4255 24.5409C80.1915 24.0972 80.8156 23.4316 81.2128 22.6828C80.2482 23.8198 78.8582 24.5963 77.383 24.8737C76.1915 25.0955 74.9433 24.9846 73.7801 24.5686C72.6738 24.1526 71.6809 23.4316 70.9716 22.5441C70.2908 21.6844 69.8085 20.6583 69.6383 19.5768C69.4397 18.3843 69.5816 17.164 70.0355 16.0547C70.4894 14.9732 71.2553 14.0025 72.2482 13.2815C73.156 12.6159 74.234 12.1722 75.3688 12.0613Z" fill="#808080"/>
</svg>
