<svg width="241" height="44" viewBox="0 0 241 44" fill="none" xmlns="http://www.w3.org/2000/svg">
<path d="M8.273 42V39.977H2.85V38.0645L6.7685 29.76H9.106L5.1875 38.0645H8.273V34.877H10.347V38.0645H11.4945V39.977H10.347V42H8.273ZM13.5407 42V39.9005H15.6402V42H13.5407ZM22.3163 29.522C23.1153 29.522 23.835 29.7118 24.4753 30.0915C25.1157 30.4655 25.62 30.9868 25.9883 31.6555C26.3623 32.3185 26.5493 33.0835 26.5493 33.9505V37.682C26.5493 38.6057 26.3623 39.4132 25.9883 40.1045C25.62 40.7902 25.1015 41.32 24.4328 41.694C23.7642 42.068 22.9822 42.255 22.0868 42.255C21.4692 42.255 20.8855 42.1502 20.3358 41.9405C19.7862 41.7252 19.2932 41.3965 18.8568 40.9545L20.3273 39.518C20.5483 39.773 20.8118 39.9742 21.1178 40.1215C21.4295 40.2632 21.7525 40.334 22.0868 40.334C22.5628 40.334 22.9793 40.2235 23.3363 40.0025C23.6933 39.7758 23.971 39.484 24.1693 39.127C24.3677 38.7643 24.4668 38.3762 24.4668 37.9625V35.931L24.8323 36.339C24.4867 36.747 24.0673 37.0672 23.5743 37.2995C23.0813 37.5262 22.5628 37.6395 22.0188 37.6395C21.2538 37.6395 20.5738 37.4638 19.9788 37.1125C19.3895 36.7612 18.9248 36.2852 18.5848 35.6845C18.2505 35.0782 18.0833 34.3925 18.0833 33.6275C18.0833 32.8625 18.276 32.1712 18.6613 31.5535C19.0467 30.9302 19.5595 30.4372 20.1998 30.0745C20.8458 29.7062 21.5513 29.522 22.3163 29.522ZM22.3163 31.477C21.9197 31.477 21.557 31.5733 21.2283 31.766C20.8997 31.9587 20.639 32.2193 20.4463 32.548C20.2537 32.871 20.1573 33.2308 20.1573 33.6275C20.1573 34.0242 20.2508 34.3868 20.4378 34.7155C20.6305 35.0442 20.8883 35.3048 21.2113 35.4975C21.54 35.6902 21.9027 35.7865 22.2993 35.7865C22.696 35.7865 23.0587 35.6902 23.3873 35.4975C23.716 35.3048 23.9767 35.0442 24.1693 34.7155C24.3677 34.3868 24.4668 34.0242 24.4668 33.6275C24.4668 33.2422 24.3705 32.888 24.1778 32.565C23.9852 32.2363 23.7245 31.9728 23.3958 31.7745C23.0728 31.5762 22.713 31.477 22.3163 31.477ZM44.6607 42V31.9955L42.3657 33.398V31.137L44.6607 29.76H46.7517V42H44.6607ZM54.3928 42.255C53.5258 42.255 52.7608 42.0708 52.0978 41.7025C51.4348 41.3285 50.9163 40.81 50.5423 40.147C50.174 39.484 49.9898 38.719 49.9898 37.852V33.908C49.9898 33.041 50.174 32.276 50.5423 31.613C50.9163 30.95 51.4348 30.4343 52.0978 30.066C52.7608 29.692 53.5258 29.505 54.3928 29.505C55.2598 29.505 56.022 29.692 56.6793 30.066C57.3423 30.4343 57.8608 30.95 58.2348 31.613C58.6088 32.276 58.7958 33.041 58.7958 33.908V37.852C58.7958 38.719 58.6088 39.484 58.2348 40.147C57.8608 40.81 57.3423 41.3285 56.6793 41.7025C56.022 42.0708 55.2598 42.255 54.3928 42.255ZM54.3928 40.3085C54.8235 40.3085 55.2145 40.2065 55.5658 40.0025C55.9171 39.7928 56.1948 39.5152 56.3988 39.1695C56.6028 38.8182 56.7048 38.4272 56.7048 37.9965V33.755C56.7048 33.3187 56.6028 32.9277 56.3988 32.582C56.1948 32.2307 55.9171 31.953 55.5658 31.749C55.2145 31.5393 54.8235 31.4345 54.3928 31.4345C53.9621 31.4345 53.5711 31.5393 53.2198 31.749C52.8685 31.953 52.5908 32.2307 52.3868 32.582C52.1828 32.9277 52.0808 33.3187 52.0808 33.755V37.9965C52.0808 38.4272 52.1828 38.8182 52.3868 39.1695C52.5908 39.5152 52.8685 39.7928 53.2198 40.0025C53.5711 40.2065 53.9621 40.3085 54.3928 40.3085ZM68.6371 42.255C67.7191 42.255 66.9172 42.0482 66.2316 41.6345C65.5459 41.2208 65.0132 40.6513 64.6336 39.926C64.2596 39.195 64.0726 38.3563 64.0726 37.41C64.0726 36.4467 64.2652 35.6023 64.6506 34.877C65.0359 34.1517 65.5714 33.585 66.2571 33.177C66.9427 32.769 67.7361 32.565 68.6371 32.565C69.5607 32.565 70.3654 32.7718 71.0511 33.1855C71.7367 33.5992 72.2694 34.1715 72.6491 34.9025C73.0287 35.6278 73.2186 36.4637 73.2186 37.41C73.2186 38.362 73.0259 39.2035 72.6406 39.9345C72.2609 40.6598 71.7282 41.2293 71.0426 41.643C70.3569 42.051 69.5551 42.255 68.6371 42.255ZM68.6371 40.334C69.4531 40.334 70.0594 40.062 70.4561 39.518C70.8527 38.974 71.0511 38.2713 71.0511 37.41C71.0511 36.5203 70.8499 35.812 70.4476 35.285C70.0452 34.7523 69.4417 34.486 68.6371 34.486C68.0874 34.486 67.6341 34.6107 67.2771 34.86C66.9257 35.1037 66.6651 35.4465 66.4951 35.8885C66.3251 36.3248 66.2401 36.832 66.2401 37.41C66.2401 38.2997 66.4412 39.0108 66.8436 39.5435C67.2516 40.0705 67.8494 40.334 68.6371 40.334ZM82.7754 43.9295V42H75.0744V32.82H77.1229V40.079H80.9989V32.82H83.0474V40.181H84.8239V43.9295H82.7754ZM90.3547 42.255C89.4254 42.255 88.6094 42.0538 87.9067 41.6515C87.204 41.2492 86.6544 40.691 86.2577 39.977C85.8667 39.263 85.6712 38.4413 85.6712 37.512C85.6712 36.509 85.8639 35.6392 86.2492 34.9025C86.6345 34.1602 87.17 33.585 87.8557 33.177C88.5414 32.769 89.3347 32.565 90.2357 32.565C91.1877 32.565 91.9952 32.7888 92.6582 33.2365C93.3269 33.6785 93.8227 34.3047 94.1457 35.115C94.4687 35.9253 94.5905 36.8802 94.5112 37.9795H92.4797V37.2315C92.474 36.2342 92.2984 35.506 91.9527 35.047C91.607 34.588 91.063 34.3585 90.3207 34.3585C89.482 34.3585 88.8587 34.6192 88.4507 35.1405C88.0427 35.6562 87.8387 36.4127 87.8387 37.41C87.8387 38.3393 88.0427 39.059 88.4507 39.569C88.8587 40.079 89.4537 40.334 90.2357 40.334C90.74 40.334 91.1735 40.2235 91.5362 40.0025C91.9045 39.7758 92.1879 39.45 92.3862 39.025L94.4092 39.637C94.0579 40.4643 93.5139 41.1075 92.7772 41.5665C92.0462 42.0255 91.2387 42.255 90.3547 42.255ZM87.1927 37.9795V36.4325H93.5082V37.9795H87.1927ZM96.3908 42V32.82H98.4393V36.441H102.562V32.82H104.61V42H102.562V38.362H98.4393V42H96.3908ZM111.037 42.255C110.119 42.255 109.318 42.0482 108.632 41.6345C107.946 41.2208 107.414 40.6513 107.034 39.926C106.66 39.195 106.473 38.3563 106.473 37.41C106.473 36.4467 106.666 35.6023 107.051 34.877C107.436 34.1517 107.972 33.585 108.657 33.177C109.343 32.769 110.136 32.565 111.037 32.565C111.961 32.565 112.766 32.7718 113.451 33.1855C114.137 33.5992 114.67 34.1715 115.049 34.9025C115.429 35.6278 115.619 36.4637 115.619 37.41C115.619 38.362 115.426 39.2035 115.041 39.9345C114.661 40.6598 114.129 41.2293 113.443 41.643C112.757 42.051 111.955 42.255 111.037 42.255ZM111.037 40.334C111.853 40.334 112.46 40.062 112.856 39.518C113.253 38.974 113.451 38.2713 113.451 37.41C113.451 36.5203 113.25 35.812 112.848 35.285C112.446 34.7523 111.842 34.486 111.037 34.486C110.488 34.486 110.034 34.6107 109.677 34.86C109.326 35.1037 109.065 35.4465 108.895 35.8885C108.725 36.3248 108.64 36.832 108.64 37.41C108.64 38.2997 108.842 39.0108 109.244 39.5435C109.652 40.0705 110.25 40.334 111.037 40.334ZM117.475 42L117.492 32.82H119.566V37.24L122.923 32.82H125.482L121.92 37.41L125.788 42H123.076L119.566 37.58V42H117.475ZM134.879 39.0505C134.426 39.0505 134.012 38.9457 133.638 38.736C133.264 38.5263 132.967 38.2402 132.746 37.8775C132.53 37.5092 132.423 37.0983 132.423 36.645C132.423 36.186 132.533 35.7752 132.754 35.4125C132.975 35.0442 133.27 34.758 133.638 34.554C134.006 34.3443 134.42 34.2395 134.879 34.2395C135.304 34.2395 135.695 34.3443 136.052 34.554C136.415 34.758 136.704 35.0442 136.919 35.4125C137.134 35.7752 137.242 36.186 137.242 36.645C137.242 37.0983 137.134 37.5092 136.919 37.8775C136.704 38.2402 136.415 38.5263 136.052 38.736C135.695 38.9457 135.304 39.0505 134.879 39.0505ZM147.524 42V31.9955L145.229 33.398V31.137L147.524 29.76H149.615V42H147.524ZM154.978 42V31.9955L152.683 33.398V31.137L154.978 29.76H157.069V42H154.978ZM167.765 42.255C166.847 42.255 166.045 42.0482 165.36 41.6345C164.674 41.2208 164.141 40.6513 163.762 39.926C163.388 39.195 163.201 38.3563 163.201 37.41C163.201 36.4467 163.393 35.6023 163.779 34.877C164.164 34.1517 164.699 33.585 165.385 33.177C166.071 32.769 166.864 32.565 167.765 32.565C168.689 32.565 169.493 32.7718 170.179 33.1855C170.865 33.5992 171.397 34.1715 171.777 34.9025C172.157 35.6278 172.347 36.4637 172.347 37.41C172.347 38.362 172.154 39.2035 171.769 39.9345C171.389 40.6598 170.856 41.2293 170.171 41.643C169.485 42.051 168.683 42.255 167.765 42.255ZM167.765 40.334C168.581 40.334 169.187 40.062 169.584 39.518C169.981 38.974 170.179 38.2713 170.179 37.41C170.179 36.5203 169.978 35.812 169.576 35.285C169.173 34.7523 168.57 34.486 167.765 34.486C167.215 34.486 166.762 34.6107 166.405 34.86C166.054 35.1037 165.793 35.4465 165.623 35.8885C165.453 36.3248 165.368 36.832 165.368 37.41C165.368 38.2997 165.569 39.0108 165.972 39.5435C166.38 40.0705 166.977 40.334 167.765 40.334ZM176.34 42V34.639H173.272V32.82H181.457V34.639H178.389V42H176.34ZM186.332 42.255C185.459 42.255 184.663 42.0708 183.943 41.7025C183.224 41.3342 182.657 40.8298 182.243 40.1895L183.858 39.11C184.187 39.501 184.553 39.8042 184.955 40.0195C185.357 40.2292 185.805 40.334 186.298 40.334C186.814 40.334 187.219 40.2207 187.513 39.994C187.808 39.7673 187.955 39.4642 187.955 39.0845C187.955 38.7502 187.856 38.515 187.658 38.379C187.46 38.2373 187.199 38.1523 186.876 38.124C186.553 38.0957 186.207 38.0815 185.839 38.0815H185.159V36.458H185.83C186.346 36.458 186.777 36.3985 187.122 36.2795C187.474 36.1605 187.649 35.897 187.649 35.489C187.649 35.1207 187.513 34.86 187.241 34.707C186.969 34.5483 186.652 34.469 186.289 34.469C185.847 34.469 185.411 34.5625 184.98 34.7495C184.55 34.9365 184.164 35.1632 183.824 35.4295L182.668 34.0355C183.178 33.5822 183.748 33.2252 184.377 32.9645C185.006 32.6982 185.677 32.565 186.391 32.565C186.981 32.565 187.53 32.667 188.04 32.871C188.556 33.075 188.97 33.381 189.281 33.789C189.599 34.197 189.757 34.7013 189.757 35.302C189.757 35.7327 189.664 36.1378 189.477 36.5175C189.296 36.8972 189.004 37.257 188.601 37.597L188.576 36.934C188.888 37.0643 189.151 37.2457 189.366 37.478C189.587 37.7103 189.755 37.9823 189.868 38.294C189.987 38.6057 190.046 38.9372 190.046 39.2885C190.046 39.9288 189.876 40.47 189.536 40.912C189.196 41.354 188.743 41.6883 188.176 41.915C187.615 42.1417 187.001 42.255 186.332 42.255ZM191.908 42L191.9 32.82H193.948V35.88H194.977C195.232 35.88 195.518 35.8857 195.835 35.897C196.158 35.9083 196.427 35.9338 196.643 35.9735C197.158 36.0868 197.597 36.2682 197.96 36.5175C198.328 36.7668 198.609 37.0927 198.802 37.495C198.994 37.8973 199.091 38.3818 199.091 38.9485C199.091 39.7588 198.881 40.4077 198.462 40.895C198.042 41.3767 197.456 41.7053 196.702 41.881C196.481 41.932 196.206 41.966 195.878 41.983C195.549 41.9943 195.257 42 195.002 42H191.908ZM193.948 40.3935H195.181C195.305 40.3935 195.444 40.3878 195.597 40.3765C195.75 40.3652 195.895 40.3397 196.031 40.3C196.286 40.232 196.512 40.079 196.711 39.841C196.909 39.5973 197.008 39.2998 197.008 38.9485C197.008 38.5802 196.909 38.277 196.711 38.039C196.512 37.801 196.269 37.6452 195.98 37.5715C195.844 37.5375 195.705 37.5148 195.563 37.5035C195.427 37.4922 195.3 37.4865 195.181 37.4865H193.948V40.3935ZM200.051 42V32.82H202.1V42H200.051ZM204.467 42V32.82H208.64C208.941 32.82 209.221 32.837 209.482 32.871C209.743 32.905 209.966 32.9475 210.153 32.9985C210.595 33.1288 210.986 33.3838 211.326 33.7635C211.666 34.1375 211.836 34.656 211.836 35.319C211.836 35.71 211.774 36.033 211.649 36.288C211.525 36.5373 211.36 36.747 211.156 36.917C211.06 36.9963 210.961 37.0643 210.859 37.121C210.757 37.1777 210.655 37.223 210.553 37.257C210.774 37.291 210.984 37.3562 211.182 37.4525C211.494 37.6055 211.754 37.8322 211.964 38.1325C212.179 38.4328 212.287 38.855 212.287 39.399C212.287 40.0167 212.137 40.538 211.836 40.963C211.542 41.3823 211.108 41.6742 210.536 41.8385C210.326 41.8952 210.085 41.9377 209.813 41.966C209.541 41.9887 209.264 42 208.98 42H204.467ZM206.541 40.419H208.836C208.955 40.419 209.085 40.4077 209.227 40.385C209.369 40.3623 209.496 40.3312 209.609 40.2915C209.813 40.2178 209.961 40.0875 210.051 39.9005C210.148 39.7135 210.196 39.518 210.196 39.314C210.196 39.0363 210.125 38.8153 209.983 38.651C209.847 38.481 209.683 38.3677 209.49 38.311C209.377 38.2657 209.252 38.2402 209.116 38.2345C208.986 38.2232 208.878 38.2175 208.793 38.2175H206.541V40.419ZM206.541 36.611H208.241C208.417 36.611 208.587 36.6025 208.751 36.5855C208.921 36.5628 209.063 36.526 209.176 36.475C209.363 36.4013 209.499 36.2767 209.584 36.101C209.675 35.9253 209.72 35.7298 209.72 35.5145C209.72 35.2878 209.669 35.0838 209.567 34.9025C209.471 34.7155 209.315 34.5908 209.099 34.5285C208.958 34.4718 208.785 34.4407 208.581 34.435C208.383 34.4293 208.255 34.4265 208.198 34.4265H206.541V36.611ZM218.035 42.255C217.117 42.255 216.315 42.0482 215.629 41.6345C214.943 41.2208 214.411 40.6513 214.031 39.926C213.657 39.195 213.47 38.3563 213.47 37.41C213.47 36.4467 213.663 35.6023 214.048 34.877C214.433 34.1517 214.969 33.585 215.655 33.177C216.34 32.769 217.134 32.565 218.035 32.565C218.958 32.565 219.763 32.7718 220.449 33.1855C221.134 33.5992 221.667 34.1715 222.047 34.9025C222.426 35.6278 222.616 36.4637 222.616 37.41C222.616 38.362 222.423 39.2035 222.038 39.9345C221.658 40.6598 221.126 41.2293 220.44 41.643C219.754 42.051 218.953 42.255 218.035 42.255ZM218.035 40.334C218.851 40.334 219.457 40.062 219.854 39.518C220.25 38.974 220.449 38.2713 220.449 37.41C220.449 36.5203 220.247 35.812 219.845 35.285C219.443 34.7523 218.839 34.486 218.035 34.486C217.485 34.486 217.032 34.6107 216.675 34.86C216.323 35.1037 216.063 35.4465 215.893 35.8885C215.723 36.3248 215.638 36.832 215.638 37.41C215.638 38.2997 215.839 39.0108 216.241 39.5435C216.649 40.0705 217.247 40.334 218.035 40.334ZM224.472 42V32.82H228.645C228.946 32.82 229.226 32.837 229.487 32.871C229.747 32.905 229.971 32.9475 230.158 32.9985C230.6 33.1288 230.991 33.3838 231.331 33.7635C231.671 34.1375 231.841 34.656 231.841 35.319C231.841 35.71 231.779 36.033 231.654 36.288C231.53 36.5373 231.365 36.747 231.161 36.917C231.065 36.9963 230.966 37.0643 230.864 37.121C230.762 37.1777 230.66 37.223 230.558 37.257C230.779 37.291 230.988 37.3562 231.187 37.4525C231.498 37.6055 231.759 37.8322 231.969 38.1325C232.184 38.4328 232.292 38.855 232.292 39.399C232.292 40.0167 232.142 40.538 231.841 40.963C231.547 41.3823 231.113 41.6742 230.541 41.8385C230.331 41.8952 230.09 41.9377 229.818 41.966C229.546 41.9887 229.269 42 228.985 42H224.472ZM226.546 40.419H228.841C228.96 40.419 229.09 40.4077 229.232 40.385C229.373 40.3623 229.501 40.3312 229.614 40.2915C229.818 40.2178 229.966 40.0875 230.056 39.9005C230.153 39.7135 230.201 39.518 230.201 39.314C230.201 39.0363 230.13 38.8153 229.988 38.651C229.852 38.481 229.688 38.3677 229.495 38.311C229.382 38.2657 229.257 38.2402 229.121 38.2345C228.991 38.2232 228.883 38.2175 228.798 38.2175H226.546V40.419ZM226.546 36.611H228.246C228.421 36.611 228.591 36.6025 228.756 36.5855C228.926 36.5628 229.067 36.526 229.181 36.475C229.368 36.4013 229.504 36.2767 229.589 36.101C229.679 35.9253 229.725 35.7298 229.725 35.5145C229.725 35.2878 229.674 35.0838 229.572 34.9025C229.475 34.7155 229.32 34.5908 229.104 34.5285C228.963 34.4718 228.79 34.4407 228.586 34.435C228.387 34.4293 228.26 34.4265 228.203 34.4265H226.546V36.611Z" fill="black"/>
<path d="M11.5489 2.92705C11.8483 2.00574 13.1517 2.00574 13.4511 2.92705L15.0819 7.9463C15.2158 8.35833 15.5997 8.63729 16.033 8.63729H21.3105C22.2792 8.63729 22.682 9.8769 21.8983 10.4463L17.6287 13.5484C17.2782 13.803 17.1315 14.2544 17.2654 14.6664L18.8963 19.6857C19.1956 20.607 18.1411 21.3731 17.3574 20.8037L13.0878 17.7016C12.7373 17.447 12.2627 17.447 11.9122 17.7016L7.64258 20.8037C6.85887 21.3731 5.80439 20.607 6.10374 19.6857L7.7346 14.6664C7.86847 14.2544 7.72181 13.803 7.37132 13.5484L3.10169 10.4463C2.31798 9.8769 2.72075 8.63729 3.68948 8.63729H8.96703C9.40026 8.63729 9.78421 8.35833 9.91809 7.9463L11.5489 2.92705Z" fill="#FF720C"/>
<path d="M36.5489 2.92705C36.8483 2.00574 38.1517 2.00574 38.4511 2.92705L40.0819 7.9463C40.2158 8.35833 40.5997 8.63729 41.033 8.63729H46.3105C47.2792 8.63729 47.682 9.8769 46.8983 10.4463L42.6287 13.5484C42.2782 13.803 42.1315 14.2544 42.2654 14.6664L43.8963 19.6857C44.1956 20.607 43.1411 21.3731 42.3574 20.8037L38.0878 17.7016C37.7373 17.447 37.2627 17.447 36.9122 17.7016L32.6426 20.8037C31.8589 21.3731 30.8044 20.607 31.1037 19.6857L32.7346 14.6664C32.8685 14.2544 32.7218 13.803 32.3713 13.5484L28.1017 10.4463C27.318 9.8769 27.7208 8.63729 28.6895 8.63729H33.967C34.4003 8.63729 34.7842 8.35833 34.9181 7.9463L36.5489 2.92705Z" fill="#FF720C"/>
<path d="M61.5489 2.92705C61.8483 2.00574 63.1517 2.00574 63.4511 2.92705L65.0819 7.9463C65.2158 8.35833 65.5997 8.63729 66.033 8.63729H71.3105C72.2792 8.63729 72.682 9.8769 71.8983 10.4463L67.6287 13.5484C67.2782 13.803 67.1315 14.2544 67.2654 14.6664L68.8963 19.6857C69.1956 20.607 68.1411 21.3731 67.3574 20.8037L63.0878 17.7016C62.7373 17.447 62.2627 17.447 61.9122 17.7016L57.6426 20.8037C56.8589 21.3731 55.8044 20.607 56.1037 19.6857L57.7346 14.6664C57.8685 14.2544 57.7218 13.803 57.3713 13.5484L53.1017 10.4463C52.318 9.8769 52.7208 8.63729 53.6895 8.63729H58.967C59.4003 8.63729 59.7842 8.35833 59.9181 7.9463L61.5489 2.92705Z" fill="#FF720C"/>
<path d="M86.5489 2.92705C86.8483 2.00574 88.1517 2.00574 88.4511 2.92705L90.0819 7.9463C90.2158 8.35833 90.5997 8.63729 91.033 8.63729H96.3105C97.2792 8.63729 97.682 9.8769 96.8983 10.4463L92.6287 13.5484C92.2782 13.803 92.1315 14.2544 92.2654 14.6664L93.8963 19.6857C94.1956 20.607 93.1411 21.3731 92.3574 20.8037L88.0878 17.7016C87.7373 17.447 87.2627 17.447 86.9122 17.7016L82.6426 20.8037C81.8589 21.3731 80.8044 20.607 81.1037 19.6857L82.7346 14.6664C82.8685 14.2544 82.7218 13.803 82.3713 13.5484L78.1017 10.4463C77.318 9.8769 77.7208 8.63729 78.6895 8.63729H83.967C84.4003 8.63729 84.7842 8.35833 84.9181 7.9463L86.5489 2.92705Z" fill="#FF720C"/>
<path d="M111.549 2.92705C111.848 2.00574 113.152 2.00574 113.451 2.92705L115.082 7.9463C115.216 8.35833 115.6 8.63729 116.033 8.63729H121.311C122.279 8.63729 122.682 9.8769 121.898 10.4463L117.629 13.5484C117.278 13.803 117.132 14.2544 117.265 14.6664L118.896 19.6857C119.196 20.607 118.141 21.3731 117.357 20.8037L113.088 17.7016C112.737 17.447 112.263 17.447 111.912 17.7016L107.643 20.8037C106.859 21.3731 105.804 20.607 106.104 19.6857L107.735 14.6664C107.868 14.2544 107.722 13.803 107.371 13.5484L103.102 10.4463C102.318 9.8769 102.721 8.63729 103.689 8.63729H108.967C109.4 8.63729 109.784 8.35833 109.918 7.9463L111.549 2.92705Z" fill="#FF720C"/>
</svg>
