<svg width="128" height="57" viewBox="0 0 128 57" fill="none" xmlns="http://www.w3.org/2000/svg">
<path fill-rule="evenodd" clip-rule="evenodd" d="M37.7732 1H29.9113C30.334 3.65714 32.8701 6.14286 35.6598 6.14286H41.9155C42 5.88571 42 5.54286 42 5.28571C42 2.88571 40.1402 1 37.7732 1Z" fill="#808080"/>
<path fill-rule="evenodd" clip-rule="evenodd" d="M30.5876 6.57143V13H34.3918V9.57143H37.7732C39.633 9.57143 41.2392 8.28571 41.7464 6.57143H30.5876Z" fill="#808080"/>
<path fill-rule="evenodd" clip-rule="evenodd" d="M17.0619 1V13H20.4433C20.4433 13 21.2887 13 21.7113 12.1429C23.9938 7.51429 24.6701 6.14286 24.6701 6.14286H25.0928V13H28.8969V1H25.5155C25.5155 1 24.6701 1.08571 24.2474 1.85714C22.3031 5.8 21.2887 7.85714 21.2887 7.85714H20.866V1H17.0619Z" fill="#808080"/>
<path fill-rule="evenodd" clip-rule="evenodd" d="M1 13V1H4.80412C4.80412 1 5.90309 1 6.49485 2.71429C8.01649 7.25714 8.18557 7.85714 8.18557 7.85714C8.18557 7.85714 8.52371 6.74286 9.87629 2.71429C10.468 1 11.567 1 11.567 1H15.3711V13H11.567V6.57143H11.1443L9.03093 13H7.34021L5.2268 6.57143H4.80412V13H1Z" fill="#808080"/>
<path d="M17.7678 46.7829H14.4342L16.5306 33.2532H19.8642L17.7678 46.7829ZM11.6161 33.2532L8.41995 42.5503L8.04191 40.5607L6.9078 34.447C6.9078 34.447 6.77033 33.217 5.32691 33.217H0.0687343L0 33.4702C0 33.4702 1.61526 33.832 3.50545 35.0258L6.42666 46.7829H9.89774L15.2246 33.2532H11.6161ZM37.907 46.7829H40.9656L38.285 33.2532H35.6044C34.3671 33.2532 34.0578 34.2661 34.0578 34.2661L29.109 46.7829H32.5801L33.2674 44.7571H37.5289L37.907 46.7829ZM34.2297 41.9715L35.9824 36.9069L36.979 41.9715H34.2297ZM29.3495 36.509L29.8307 33.6149C29.8307 33.6149 28.3529 33.0361 26.8064 33.0361C25.1567 33.0361 21.2045 33.7958 21.2045 37.5219C21.2045 41.031 25.8441 41.0671 25.8441 42.9121C25.8441 44.7571 21.6857 44.4315 20.311 43.2739L19.8298 46.3126C19.8298 46.3126 21.3076 47.0723 23.6102 47.0723C25.8785 47.0723 29.3495 45.8423 29.3495 42.4418C29.3495 38.9328 24.6756 38.6072 24.6756 37.0516C24.6756 35.4599 27.9405 35.677 29.3495 36.509Z" fill="#808080"/>
<path d="M62.6328 52.6105V50.8663C62.6328 50.1977 62.2228 49.7616 61.5198 49.7616C61.1683 49.7616 60.7875 49.8779 60.5238 50.2558C60.3188 49.936 60.0259 49.7616 59.5865 49.7616C59.2936 49.7616 59.0007 49.8488 58.7663 50.1686V49.8198H58.1512V52.6105H58.7663V51.0698C58.7663 50.5756 59.03 50.343 59.4401 50.343C59.8501 50.343 60.0552 50.6047 60.0552 51.0698V52.6105H60.6703V51.0698C60.6703 50.5756 60.9632 50.343 61.344 50.343C61.7541 50.343 61.9591 50.6047 61.9591 51.0698V52.6105H62.6328ZM71.7425 49.8198H70.7466V48.9767H70.1315V49.8198H69.5749V50.3721H70.1315V51.6512C70.1315 52.2907 70.3951 52.6686 71.0981 52.6686C71.3617 52.6686 71.6546 52.5814 71.8597 52.4651L71.6839 51.9419C71.5082 52.0581 71.3031 52.0872 71.1567 52.0872C70.8638 52.0872 70.7466 51.9128 70.7466 51.6221V50.3721H71.7425V49.8198ZM76.9564 49.7616C76.6049 49.7616 76.3706 49.936 76.2241 50.1686V49.8198H75.609V52.6105H76.2241V51.0407C76.2241 50.5756 76.4292 50.314 76.8099 50.314C76.9271 50.314 77.0736 50.343 77.1907 50.3721L77.3665 49.7907C77.2493 49.7616 77.0736 49.7616 76.9564 49.7616ZM69.077 50.0523C68.7841 49.8488 68.374 49.7616 67.9346 49.7616C67.2316 49.7616 66.7629 50.1105 66.7629 50.6628C66.7629 51.1279 67.1144 51.3895 67.7296 51.4767L68.0225 51.5058C68.3447 51.564 68.5204 51.6512 68.5204 51.7965C68.5204 52 68.2861 52.1454 67.876 52.1454C67.4659 52.1454 67.1437 52 66.9387 51.8547L66.6458 52.3198C66.968 52.5523 67.4074 52.6686 67.8467 52.6686C68.6669 52.6686 69.1356 52.2907 69.1356 51.7674C69.1356 51.2733 68.7548 51.0116 68.1689 50.9244L67.876 50.8954C67.6124 50.8663 67.4074 50.8081 67.4074 50.6337C67.4074 50.4302 67.6124 50.314 67.9346 50.314C68.2861 50.314 68.6376 50.4593 68.8134 50.5465L69.077 50.0523ZM85.4217 49.7616C85.0702 49.7616 84.8358 49.936 84.6894 50.1686V49.8198H84.0742V52.6105H84.6894V51.0407C84.6894 50.5756 84.8944 50.314 85.2752 50.314C85.3924 50.314 85.5388 50.343 85.656 50.3721L85.8317 49.7907C85.7146 49.7616 85.5388 49.7616 85.4217 49.7616ZM77.5715 51.2151C77.5715 52.0581 78.1574 52.6686 79.0654 52.6686C79.4755 52.6686 79.7684 52.5814 80.0613 52.3488L79.7684 51.8547C79.5341 52.0291 79.2997 52.1163 79.0361 52.1163C78.5381 52.1163 78.1866 51.7674 78.1866 51.2151C78.1866 50.6919 78.5381 50.343 79.0361 50.314C79.2997 50.314 79.5341 50.4012 79.7684 50.5756L80.0613 50.0814C79.7684 49.8488 79.4755 49.7616 79.0654 49.7616C78.1574 49.7616 77.5715 50.3721 77.5715 51.2151ZM83.2541 49.8198H82.639V50.1686C82.4339 49.907 82.141 49.7616 81.7602 49.7616C80.9693 49.7616 80.3542 50.3721 80.3542 51.2151C80.3542 52.0581 80.9693 52.6686 81.7602 52.6686C82.1703 52.6686 82.4632 52.5233 82.639 52.2616V52.6105H83.2541V49.8198ZM80.9986 51.2151C80.9986 50.7209 81.3208 50.314 81.8481 50.314C82.3461 50.314 82.6975 50.6919 82.6975 51.2151C82.6975 51.7093 82.3461 52.1163 81.8481 52.1163C81.3208 52.0872 80.9986 51.7093 80.9986 51.2151ZM73.6465 49.7616C72.8263 49.7616 72.2405 50.343 72.2405 51.2151C72.2405 52.0872 72.8263 52.6686 73.6757 52.6686C74.0858 52.6686 74.4959 52.5523 74.8181 52.2907L74.5252 51.8547C74.2909 52.0291 73.998 52.1454 73.705 52.1454C73.3242 52.1454 72.9435 51.9709 72.8556 51.4767H74.9353C74.9353 51.3895 74.9353 51.3314 74.9353 51.2442C74.9646 50.343 74.4373 49.7616 73.6465 49.7616ZM73.6465 50.2849C74.0272 50.2849 74.2909 50.5174 74.3495 50.9535H72.8849C72.9435 50.5756 73.2071 50.2849 73.6465 50.2849ZM88.9074 51.2151V48.7151H88.3215V50.1686C88.1165 49.907 87.8236 49.7616 87.4428 49.7616C86.6519 49.7616 86.0368 50.3721 86.0368 51.2151C86.0368 52.0581 86.6519 52.6686 87.4428 52.6686C87.8529 52.6686 88.1458 52.5233 88.3215 52.2616V52.6105H88.9366V51.2151H88.9074ZM86.6519 51.2151C86.6519 50.7209 86.9741 50.314 87.5014 50.314C87.9993 50.314 88.3508 50.6919 88.3508 51.2151C88.3508 51.7093 87.9993 52.1163 87.5014 52.1163C86.9741 52.0872 86.6519 51.7093 86.6519 51.2151ZM66.0892 49.8198H65.4741V50.1686C65.2691 49.907 64.9762 49.7616 64.5954 49.7616C63.8045 49.7616 63.1894 50.3721 63.1894 51.2151C63.1894 52.0581 63.8045 52.6686 64.5954 52.6686C65.0054 52.6686 65.2984 52.5233 65.4741 52.2616V52.6105H66.0892V49.8198ZM63.8045 51.2151C63.8045 50.7209 64.1267 50.314 64.6539 50.314C65.1519 50.314 65.5034 50.6919 65.5034 51.2151C65.5034 51.7093 65.1519 52.1163 64.6539 52.1163C64.1267 52.0872 63.8045 51.7093 63.8045 51.2151ZM89.9326 52.2035C89.9619 52.2035 90.0204 52.2035 90.0497 52.2326C90.079 52.2326 90.1083 52.2616 90.1376 52.2907C90.1669 52.3198 90.1962 52.3488 90.1962 52.3779C90.1962 52.407 90.2255 52.4361 90.2255 52.4942C90.2255 52.5233 90.2255 52.5814 90.1962 52.6105C90.1669 52.6395 90.1669 52.6686 90.1376 52.6977C90.1083 52.7267 90.079 52.7558 90.0497 52.7558C90.0204 52.7849 89.9911 52.7849 89.9326 52.7849C89.9033 52.7849 89.8447 52.7849 89.8154 52.7558C89.7861 52.7267 89.7568 52.7267 89.7275 52.6977C89.6982 52.6686 89.6689 52.6395 89.6689 52.6105C89.6396 52.5814 89.6396 52.5523 89.6396 52.4942C89.6396 52.4651 89.6396 52.407 89.6689 52.3779C89.6982 52.3488 89.6982 52.3198 89.7275 52.2907C89.7568 52.2616 89.7861 52.2326 89.8154 52.2326C89.8447 52.2035 89.9033 52.2035 89.9326 52.2035ZM89.9326 52.6977C89.9619 52.6977 89.9911 52.6977 90.0204 52.6686C90.0497 52.6686 90.079 52.6395 90.079 52.6105C90.1083 52.5814 90.1083 52.5814 90.1376 52.5523C90.1376 52.5233 90.1669 52.4942 90.1669 52.4651C90.1669 52.436 90.1669 52.407 90.1376 52.3779C90.1376 52.3488 90.1083 52.3198 90.079 52.3198C90.0497 52.2907 90.0497 52.2907 90.0204 52.2616C89.9911 52.2616 89.9619 52.2326 89.9326 52.2326C89.9033 52.2326 89.874 52.2326 89.8447 52.2616C89.8154 52.2616 89.7861 52.2907 89.7861 52.3198C89.7568 52.3488 89.7568 52.3488 89.7275 52.3779C89.7275 52.407 89.6982 52.436 89.6982 52.4651C89.6982 52.4942 89.6982 52.5233 89.7275 52.5523C89.7275 52.5814 89.7568 52.6105 89.7861 52.6105C89.8154 52.6395 89.8154 52.6395 89.8447 52.6686C89.874 52.6686 89.9033 52.6977 89.9326 52.6977ZM89.9619 52.3488C89.9911 52.3488 90.0204 52.3488 90.0497 52.3779C90.079 52.407 90.079 52.407 90.079 52.436C90.079 52.4651 90.079 52.4651 90.0497 52.4942C90.0497 52.4942 90.0204 52.5233 89.9911 52.5233L90.079 52.6105H90.0204L89.9326 52.5233H89.9033V52.6105H89.8447V52.3488H89.9619ZM89.874 52.3779V52.436H89.9619C89.9619 52.436 89.9619 52.436 89.9619 52.407V52.3779H89.874ZM89.5518 43.3663V43.0174H89.6982V42.9593H89.3467V43.0174H89.4932V43.3663H89.5518ZM90.2255 43.3663V42.9593H90.1083L89.9911 43.25L89.874 42.9593H89.7861V43.3663H89.874V43.0465L89.9911 43.3081H90.079L90.1962 43.0465V43.3663H90.2255ZM72.5627 45.3721C72.6505 45.4302 72.7384 45.5174 72.8263 45.5756C71.1567 46.6802 69.1356 47.3198 66.9973 47.3198C61.1683 47.3198 56.4523 42.6395 56.4523 36.8547C56.4523 31.0698 61.1683 26.3895 66.9973 26.3895C69.1648 26.3895 71.1567 27.0291 72.8263 28.1337C72.7384 28.1919 72.6505 28.2791 72.5627 28.3372C70.0729 30.4884 68.6669 33.5698 68.6669 36.8547C68.6669 40.1395 70.0729 43.2209 72.5627 45.3721ZM80.0027 26.4186C77.8351 26.4186 75.8433 27.0581 74.1737 28.1628C74.2616 28.2209 74.3495 28.3081 74.4373 28.3663C76.9271 30.5174 78.3331 33.5988 78.3331 36.8837C78.3331 40.1395 76.8978 43.25 74.4373 45.4012C74.3495 45.4593 74.2616 45.5465 74.1737 45.6047C75.8433 46.7093 77.8644 47.3488 80.0027 47.3488C85.8317 47.3488 90.5477 42.6686 90.5477 36.8837C90.5477 31.0988 85.8317 26.4186 80.0027 26.4186ZM73.5 28.657C73.3535 28.7733 73.2364 28.8605 73.0899 28.9767C70.8638 30.8953 69.4578 33.7151 69.4578 36.8837C69.4578 40.0233 70.8638 42.8721 73.0899 44.7907C73.2071 44.907 73.3535 45.0233 73.5 45.1105C73.6465 44.9942 73.7636 44.907 73.9101 44.7907C76.1362 42.8721 77.5422 40.0523 77.5422 36.8837C77.5422 33.7442 76.1362 30.8953 73.9101 28.9767C73.7636 28.8605 73.6465 28.7442 73.5 28.657Z" fill="#808080"/>
<path fill-rule="evenodd" clip-rule="evenodd" d="M126.411 16.3637C126.496 16.3637 126.582 16.3637 126.667 16.3637C126.667 16.5856 126.667 16.8074 126.667 17.0293C126.752 17.0293 126.865 17.057 126.95 17.0293C127.177 16.8352 127.376 16.6133 127.603 16.3915C127.716 16.3637 127.83 16.3915 127.943 16.3915C127.688 16.6688 127.433 16.9184 127.149 17.168C127.404 17.4453 127.66 17.6949 127.915 17.9445C127.801 17.9445 127.66 17.9722 127.546 17.9445C127.319 17.7226 127.121 17.5285 126.894 17.3066C126.809 17.3066 126.723 17.3066 126.638 17.3066C126.638 17.5285 126.638 17.7504 126.638 17.9722C126.553 17.9722 126.468 17.9722 126.383 17.9722C126.411 17.4176 126.383 16.8906 126.411 16.3637ZM124.596 16.3637C124.681 16.3637 124.766 16.3637 124.851 16.3637C124.851 16.5856 124.851 16.8074 124.851 17.0293C125.163 17.0293 125.475 17.0293 125.787 17.0293C125.787 16.8074 125.787 16.5856 125.787 16.3637C125.872 16.3637 125.957 16.3637 126.043 16.3637C126.043 16.8906 126.043 17.3898 126.043 17.9167C125.957 17.9167 125.872 17.9167 125.787 17.9167C125.787 17.6949 125.787 17.473 125.787 17.2789C125.475 17.2789 125.163 17.2789 124.851 17.2789C124.851 17.5008 124.851 17.7226 124.851 17.9167C124.766 17.9167 124.681 17.9167 124.596 17.9167C124.596 17.4176 124.596 16.8906 124.596 16.3637ZM123.546 16.6965C123.461 16.9184 123.348 17.1402 123.262 17.3344C123.461 17.3344 123.66 17.3344 123.858 17.3344C123.773 17.1125 123.66 16.9184 123.546 16.6965ZM123.404 16.3637C123.489 16.3637 123.603 16.3637 123.688 16.3637C123.915 16.8906 124.17 17.4176 124.397 17.9167C124.312 17.9167 124.199 17.9167 124.113 17.9167C124.057 17.8058 124 17.6949 123.943 17.584C123.66 17.584 123.404 17.584 123.121 17.584C123.064 17.6949 123.007 17.8058 122.979 17.9167C122.894 17.9167 122.78 17.9167 122.695 17.9167C122.95 17.4176 123.177 16.8906 123.404 16.3637ZM121.475 17.2789C121.475 17.4176 121.475 17.5562 121.475 17.6672C121.645 17.6672 121.844 17.6672 122.043 17.6672C122.128 17.6672 122.241 17.6672 122.326 17.6117C122.44 17.5008 122.355 17.3066 122.213 17.2789C121.957 17.2789 121.73 17.2789 121.475 17.2789ZM121.22 16.3637C121.645 16.3637 122.043 16.3637 122.468 16.3637C122.468 16.4469 122.468 16.5301 122.468 16.6133C122.128 16.6133 121.816 16.6133 121.475 16.6133C121.475 16.752 121.475 16.8906 121.475 17.0016C121.702 17.0016 121.929 17.0016 122.156 17.0016C122.355 17.0016 122.525 17.1402 122.582 17.3344C122.638 17.5285 122.553 17.7504 122.383 17.8613C122.298 17.9167 122.184 17.9167 122.099 17.9167C121.816 17.9167 121.504 17.9167 121.22 17.9167C121.22 17.4176 121.22 16.8906 121.22 16.3637ZM119.149 16.3637C119.234 16.3637 119.319 16.3637 119.404 16.3637C119.603 16.6133 119.83 16.8629 120.057 17.1125C120.284 16.8629 120.482 16.6133 120.709 16.3637C120.794 16.3637 120.879 16.3637 120.965 16.3637C120.965 16.8906 120.965 17.4176 120.965 17.9167C120.879 17.9167 120.794 17.9167 120.709 17.9167C120.709 17.5285 120.709 17.168 120.709 16.7797C120.482 17.0293 120.284 17.2789 120.057 17.5008C119.83 17.2512 119.631 17.0016 119.404 16.752C119.404 17.1402 119.404 17.5008 119.404 17.889C119.319 17.889 119.234 17.889 119.149 17.889C119.149 17.4176 119.149 16.8906 119.149 16.3637ZM115.66 16.3637C115.745 16.3637 115.83 16.3637 115.915 16.3637C115.915 16.5856 115.915 16.8074 115.915 17.0293C116 17.0293 116.085 17.0293 116.199 17.0293C116.426 16.8074 116.624 16.5856 116.851 16.3915C116.965 16.3915 117.078 16.3915 117.191 16.3915C116.936 16.6688 116.652 16.9184 116.397 17.1957C116.652 17.4453 116.908 17.6949 117.163 17.9722C117.05 17.9722 116.936 17.9722 116.823 17.9722C116.624 17.7781 116.426 17.584 116.227 17.3898C116.142 17.2789 116 17.3344 115.915 17.3344C115.915 17.5562 115.915 17.7781 115.915 17.9999C115.83 17.9999 115.745 17.9999 115.66 17.9999C115.631 17.4176 115.66 16.8906 115.66 16.3637ZM114.241 17.6672C114.468 17.6672 114.695 17.6672 114.894 17.6672C114.979 17.6672 115.064 17.6117 115.092 17.5562C115.149 17.4453 115.064 17.2789 114.922 17.2789C114.695 17.2789 114.468 17.2789 114.241 17.2789C114.241 17.4176 114.241 17.5562 114.241 17.6672ZM114.241 16.6411C114.241 16.7797 114.241 16.8906 114.241 17.0293C114.468 17.0293 114.667 17.0293 114.894 17.0293C114.979 17.0293 115.035 17.0016 115.092 16.9461C115.177 16.8352 115.092 16.6411 114.922 16.6411C114.695 16.6133 114.468 16.6133 114.241 16.6411ZM113.986 16.3637C114.298 16.3637 114.61 16.3637 114.894 16.3637C115.064 16.3637 115.262 16.4747 115.319 16.6133C115.404 16.7797 115.348 17.0016 115.234 17.1402C115.404 17.3066 115.433 17.584 115.262 17.7504C115.177 17.8613 115.035 17.9167 114.894 17.9167C114.582 17.9167 114.27 17.9167 113.986 17.9167C113.986 17.4176 113.986 16.8906 113.986 16.3637ZM117.844 16.6133C117.645 16.6688 117.475 16.8629 117.447 17.0848C117.418 17.2789 117.504 17.473 117.674 17.584C117.844 17.7226 118.099 17.7504 118.27 17.6394C118.44 17.5562 118.582 17.3898 118.582 17.1957C118.61 17.0016 118.525 16.8074 118.355 16.6688C118.241 16.5856 118.043 16.5579 117.844 16.6133ZM117.872 16.3083C117.418 16.3637 117.078 16.8352 117.163 17.2789C117.22 17.7504 117.73 18.0831 118.184 17.9722C118.638 17.889 118.979 17.4176 118.865 16.9738C118.809 16.5301 118.326 16.2251 117.872 16.3083ZM112.738 16.6133C112.511 16.6688 112.34 16.8629 112.312 17.0848C112.284 17.3066 112.397 17.5285 112.567 17.6394C112.766 17.7504 113.021 17.7504 113.22 17.6394C113.418 17.5285 113.504 17.2789 113.447 17.0848C113.39 16.7243 113.05 16.5024 112.738 16.6133ZM112.738 16.3083C113.191 16.2251 113.674 16.5579 113.73 17.0016C113.816 17.4176 113.504 17.8613 113.078 17.9445C112.681 18.0554 112.199 17.8335 112.057 17.4453C111.915 17.1125 112.028 16.6688 112.34 16.4469C112.454 16.3915 112.596 16.336 112.738 16.3083ZM110.44 17.0016C110.496 16.6133 110.865 16.3083 111.291 16.3083C111.518 16.3083 111.745 16.3915 111.887 16.5301C111.83 16.5856 111.745 16.6688 111.688 16.7243C111.603 16.6688 111.489 16.6133 111.376 16.5856C111.121 16.5579 110.894 16.6965 110.78 16.8906C110.667 17.1125 110.752 17.4176 110.95 17.584C111.149 17.7504 111.461 17.7504 111.688 17.584C111.745 17.6394 111.83 17.7226 111.887 17.7781C111.66 17.9722 111.319 18.0277 111.035 17.9445C110.61 17.8335 110.355 17.4176 110.44 17.0016ZM104.624 8.57091C104.624 9.26422 104.624 9.98526 104.624 10.6786C106.099 10.6786 107.574 10.6786 109.05 10.6786C109.617 10.6508 110.099 10.0962 110.043 9.54154C110.014 9.29195 109.872 9.07009 109.702 8.9037C109.475 8.68184 109.163 8.54317 108.851 8.57091C107.461 8.57091 106.043 8.57091 104.624 8.57091ZM104.624 4.27238C104.624 4.96569 104.624 5.68673 104.624 6.38004C105.816 6.38004 107.007 6.38004 108.17 6.38004C108.454 6.38004 108.709 6.29685 108.936 6.13045C109.22 5.90859 109.39 5.52034 109.333 5.15981C109.248 4.7161 108.823 4.35557 108.369 4.30011C108.085 4.27238 107.773 4.30011 107.489 4.30011C106.525 4.27238 105.56 4.27238 104.624 4.27238ZM101.277 1.11088C103.546 1.11088 105.816 1.11088 108.113 1.11088C108.397 1.11088 108.681 1.11088 108.965 1.13861C110.014 1.24954 111.035 1.74872 111.716 2.52523C112.057 2.91349 112.312 3.3572 112.454 3.82866C112.794 4.91022 112.624 6.13045 111.972 7.07335C112.312 7.35068 112.624 7.65574 112.879 8.01626C113.56 8.98689 113.674 10.3181 113.191 11.4274C112.823 12.3148 112.113 13.0636 111.234 13.4796C110.695 13.7291 110.071 13.8678 109.447 13.8678C106.723 13.8678 103.972 13.8678 101.248 13.8678C101.277 9.62474 101.277 5.35394 101.277 1.11088ZM56 1.11088C57.1348 1.11088 58.2695 1.11088 59.4043 1.11088C59.4043 1.55459 59.4043 1.99831 59.4043 2.46977C59.4043 2.71936 59.4043 2.96895 59.4326 3.21854C59.5177 3.96732 59.9149 4.68836 60.5106 5.15981C61.0213 5.60353 61.7021 5.88086 62.4113 5.93632C63.234 5.99179 64.0851 5.71446 64.7092 5.18755C65.3901 4.6329 65.8156 3.77319 65.8156 2.88575C65.8156 2.30337 65.8156 1.69326 65.8156 1.11088C66.9504 1.11088 68.0851 1.11088 69.2199 1.11088C69.2199 1.58233 69.2199 2.02605 69.2199 2.4975C69.2199 3.63453 68.9078 4.77156 68.3121 5.7422C67.9149 6.40778 67.3759 7.01789 66.7801 7.48934C67.6028 8.12719 68.2553 8.98689 68.6809 9.9298C68.9929 10.6508 69.1915 11.3996 69.2199 12.1761C69.2482 12.7308 69.2199 13.3132 69.2199 13.8678C68.0851 13.8678 66.9504 13.8678 65.8156 13.8678C65.8156 13.4796 65.8156 13.119 65.8156 12.7308C65.8156 12.3425 65.844 11.9265 65.7589 11.5383C65.5603 10.5676 64.8511 9.70794 63.9149 9.31968C63.234 9.01463 62.4397 8.98689 61.7305 9.18102C60.9645 9.40288 60.2837 9.90207 59.8865 10.5676C59.6028 11.0391 59.4326 11.5937 59.4326 12.1761C59.4326 12.7308 59.4326 13.3132 59.4326 13.8678C58.2979 13.8678 57.1631 13.8678 56.0284 13.8678C56.0567 13.0358 55.9716 12.1761 56.1418 11.3442C56.4255 9.8466 57.2766 8.43224 58.4965 7.46161C57.6738 6.79603 56.9929 5.93632 56.5674 4.96569C56.227 4.27238 56.0284 3.49587 56 2.71936C56 2.19244 56 1.63779 56 1.11088ZM120.965 4.35557C120.34 4.43877 119.716 4.7161 119.262 5.13208C118.525 5.76993 118.128 6.7683 118.213 7.73893C118.298 8.7373 118.922 9.68021 119.801 10.1794C120.709 10.7063 121.872 10.734 122.809 10.2626C123.716 9.8466 124.369 8.98689 124.539 8.01626C124.738 7.04562 124.426 5.99179 123.716 5.27074C123.007 4.60517 121.957 4.21691 120.965 4.35557ZM120.284 1.08314C121.39 0.916748 122.525 0.999946 123.574 1.36047C124.993 1.85965 126.241 2.83029 127.035 4.10598C127.546 4.91022 127.858 5.85313 127.972 6.79603C128 7.12882 128 7.46161 128 7.7944C128 9.81887 128 11.8433 128 13.8678C126.894 13.8678 125.759 13.8678 124.652 13.8678C124.652 13.7569 124.652 13.6459 124.652 13.535C125.418 13.0913 126.014 12.4535 126.44 11.7047C125.333 12.9804 123.688 13.8123 121.986 13.951C120.879 14.0342 119.745 13.8678 118.723 13.4241C117.73 12.9804 116.851 12.3148 116.199 11.4828C115.574 10.6786 115.121 9.73567 114.922 8.7373C114.667 7.51707 114.809 6.21365 115.291 5.07662C115.716 4.05052 116.426 3.13534 117.305 2.44203C118.128 1.72099 119.177 1.27727 120.284 1.08314ZM91.5177 1.11088C92.2837 0.916748 93.1348 0.972213 93.8723 1.22181C94.7801 1.52686 95.5461 2.10924 96.1702 2.77482C96.9078 3.6068 97.4752 4.60517 97.8723 5.63127C98.383 6.90696 98.695 8.23812 98.8936 9.59701C99.0922 11.0114 99.1206 12.4535 99.1206 13.8678C97.9858 13.8678 96.8511 13.8678 95.7163 13.8678C95.7163 12.2871 95.6879 10.7063 95.4043 9.15329C95.2057 8.15492 94.922 7.18428 94.4681 6.26911C94.2411 5.82539 93.9858 5.40941 93.6454 5.02115C93.4184 4.77156 93.1631 4.5497 92.8227 4.43877C92.5957 4.35557 92.3121 4.38331 92.0851 4.4665C91.6312 4.66063 91.3191 5.02115 91.0355 5.40941C90.4681 6.21365 90.1277 7.12882 89.844 8.04399C89.305 9.9298 89.2766 11.8988 89.2766 13.8401C88.1418 13.8401 87.0071 13.8401 85.8723 13.8401C85.8723 12.4257 85.9007 11.0114 86.0993 9.62474C86.2979 8.21039 86.6099 6.82376 87.1489 5.4926C87.6028 4.43877 88.1702 3.41267 88.9929 2.5807C89.7021 1.88738 90.5532 1.33274 91.5177 1.11088ZM76.7376 4.35557C76.1986 4.41104 75.6879 4.6329 75.2624 4.93796C74.4113 5.54807 73.9007 6.54644 73.9574 7.57254C73.9858 8.57091 74.5248 9.54154 75.4043 10.0962C76.0567 10.5122 76.8794 10.7063 77.6454 10.5676C78.5816 10.429 79.4326 9.87433 79.9149 9.07009C80.2837 8.45998 80.4255 7.73893 80.3404 7.04562C80.227 6.13045 79.6596 5.29848 78.8652 4.79929C78.2411 4.43877 77.4752 4.27238 76.7376 4.35557ZM76.3688 1.05541C77.5887 0.916748 78.8369 1.11088 79.9433 1.61006C80.9078 2.05378 81.7589 2.71936 82.383 3.5236C83.2624 4.6329 83.7731 6.04725 83.7731 7.43388C83.7731 9.56928 83.7731 11.7324 83.7731 13.8678C82.6667 13.8678 81.5319 13.8678 80.4255 13.8678C80.4255 13.7569 80.4255 13.6459 80.4255 13.535C81.1915 13.0913 81.8156 12.4257 82.2128 11.6769C81.2482 12.814 79.8582 13.5905 78.383 13.8678C77.1915 14.0897 75.9433 13.9787 74.7801 13.5627C73.6738 13.1468 72.6809 12.4257 71.9716 11.5383C71.2908 10.6786 70.8085 9.65247 70.6383 8.57091C70.4397 7.37841 70.5816 6.15818 71.0355 5.04889C71.4894 3.96732 72.2553 2.99668 73.2482 2.27564C74.156 1.61006 75.234 1.16634 76.3688 1.05541Z" fill="#808080"/>
</svg>
