<svg width="25" height="33" viewBox="0 0 25 33" fill="none" xmlns="http://www.w3.org/2000/svg">
<g clip-path="url(#clip0_1630_344)">
<path d="M6.71465 21.797C6.36629 21.7758 5.42367 21.797 5.32121 21.797C4.98514 21.8012 4.71875 22.0847 4.71875 22.4316V28.3462C4.71875 28.6974 4.99334 28.9808 5.3335 28.9808C5.67367 28.9808 5.94826 28.6974 5.94826 28.3462V26.0235H6.854C7.64498 26.0235 8.81711 25.482 8.81711 23.997C8.81711 23.2228 8.54252 21.9028 6.71875 21.797H6.71465ZM6.8499 24.7543H5.94416V23.0578C6.22285 23.0578 6.50563 23.0578 6.64498 23.0662C7.26793 23.1001 7.5835 23.2566 7.5835 23.997C7.5835 24.6401 7.12039 24.7458 6.8499 24.7543Z" fill="black"/>
<path d="M19.8785 21.7886H17.4194C17.0793 21.7886 16.8047 22.072 16.8047 22.4232V28.3463C16.8047 28.6974 17.0793 28.9809 17.4194 28.9809C17.7596 28.9809 18.0342 28.6974 18.0342 28.3463V26.0193H19.6735C20.0137 26.0193 20.2883 25.7359 20.2883 25.3847C20.2883 25.0336 20.0137 24.7501 19.6735 24.7501H18.0342V23.0578H19.8785C20.2186 23.0578 20.4932 22.7743 20.4932 22.4232C20.4932 22.072 20.2186 21.7886 19.8785 21.7886Z" fill="black"/>
<path d="M11.064 21.7884C10.7238 21.7884 10.4492 22.0719 10.4492 22.423V28.3334C10.4492 28.6634 10.691 28.9342 11.0066 28.9638C11.0271 28.9638 11.1664 28.9765 11.3795 28.9765C12.0476 28.9765 13.4574 28.858 14.4123 27.9569C15.0435 27.3603 15.3673 26.5523 15.3673 25.5496C15.3673 22.4357 13.0271 21.7842 11.064 21.7842V21.7884ZM13.5886 27.0219C13.0517 27.5296 12.2238 27.6692 11.6787 27.703V23.0788C12.9779 23.1719 14.1377 23.6542 14.1377 25.5538C14.1377 26.1926 13.9574 26.6749 13.5886 27.0219Z" fill="black"/>
<path d="M24.8238 8.00885L17.3402 0.190385C17.2254 0.0719231 17.0656 0 16.9016 0H0.614754C0.27459 0 0 0.283462 0 0.634615V32.3654C0 32.7165 0.27459 33 0.614754 33H24.3852C24.7254 33 25 32.7165 25 32.3654V8.45308C25 8.28808 24.9385 8.12731 24.8238 8.00885ZM17.623 2.29308L22.9221 7.82692H17.623V2.29308ZM1.22951 31.7308V1.26923H16.3934V8.46154C16.3934 8.81269 16.668 9.09615 17.0082 9.09615H23.7705V31.7308H1.22951Z" fill="black"/>
</g>
<defs>
<clipPath id="clip0_1630_344">
<rect width="25" height="33" fill="white"/>
</clipPath>
</defs>
</svg>
