<svg width="48" height="20" viewBox="0 0 48 20" fill="none" xmlns="http://www.w3.org/2000/svg">
<path d="M10.4874 18.7663C11.4891 18.7663 12.3011 17.9639 12.3011 16.9741C12.3011 15.9843 11.4891 15.1819 10.4874 15.1819C9.48581 15.1819 8.67383 15.9843 8.67383 16.9741C8.67383 17.9639 9.48581 18.7663 10.4874 18.7663Z" stroke="white" stroke-width="2" stroke-miterlimit="10"/>
<path d="M17.2687 18.7663C18.2703 18.7663 19.0823 17.9639 19.0823 16.9741C19.0823 15.9843 18.2703 15.1819 17.2687 15.1819C16.2671 15.1819 15.4551 15.9843 15.4551 16.9741C15.4551 17.9639 16.2671 18.7663 17.2687 18.7663Z" stroke="white" stroke-width="2" stroke-miterlimit="10"/>
<path d="M8.04301 4.74034H21.6057L19.5556 12.9222H8.83154L3.62724 1.31177H0" stroke="white" stroke-width="2" stroke-miterlimit="10"/>
<path d="M35 7L41 13.5L47 7" stroke="white" stroke-width="2"/>
</svg>
