<svg width="143" height="35" viewBox="0 0 143 35" fill="none" xmlns="http://www.w3.org/2000/svg">
<g clip-path="url(#clip0_1175_12588)">
<path d="M20.1094 13.2645H21.8969C22.679 13.2645 24.4665 13.1531 24.4665 11.0352C24.4665 8.91741 22.679 8.80594 21.8969 8.80594H20.1094V13.2645ZM17.093 5.79639H21.7852C27.036 5.79639 27.7063 9.47473 27.7063 11.0352C27.7063 13.1531 26.5891 16.2741 21.7852 16.2741H20.1094V22.6276H17.093V5.79639Z" fill="#313434"/>
<path d="M30.8345 16.3857C30.8345 18.392 32.2869 20.1755 34.4095 20.1755C36.6439 20.1755 37.9845 18.392 37.9845 16.3857C37.9845 14.3793 36.6439 12.4844 34.4095 12.4844C32.2869 12.4844 30.8345 14.3793 30.8345 16.3857ZM41.0009 16.3857C41.0009 20.064 38.208 23.0736 34.4095 23.0736C30.6111 23.0736 27.8181 20.064 27.8181 16.3857C27.8181 12.7073 30.6111 9.69775 34.4095 9.69775C38.3197 9.69775 41.0009 12.7073 41.0009 16.3857Z" fill="#313434"/>
<path d="M52.061 12.7072H50.6086V10.0321H52.061V5.79639H55.0774V10.0321H56.8649V12.7072H55.0774V22.6276H52.061V12.7072Z" fill="#313434"/>
<path d="M60.8866 16.4966C60.8866 18.6145 62.339 20.175 64.5733 20.175C66.696 20.175 68.1483 18.6145 68.1483 16.2737C68.1483 14.0444 66.696 12.4839 64.5733 12.4839C62.339 12.4839 60.8866 14.1559 60.8866 16.4966ZM70.8296 22.6272H68.1483V20.9552C66.696 22.9616 64.6851 23.0731 64.0147 23.0731C60.8866 23.0731 57.9819 20.5094 57.9819 16.4966C57.9819 12.5954 60.6632 9.69727 64.1265 9.69727C65.914 9.69727 67.2546 10.4775 68.1483 11.9266V10.0317H70.8296V22.6272Z" fill="#313434"/>
<path d="M82.6719 16.3852C82.6719 18.8374 84.2359 20.175 86.1352 20.175C88.2578 20.175 89.8219 18.503 89.8219 16.2737C89.8219 14.6017 88.8164 12.4839 86.2469 12.4839C84.2359 12.4839 82.6719 14.1559 82.6719 16.3852ZM79.8789 10.0317H82.6719V11.7036C83.6773 9.9202 85.6883 9.69727 86.6937 9.69727C90.0453 9.69727 92.95 12.3724 92.95 16.3852C92.95 19.8406 90.7156 23.0731 86.6937 23.0731C85.6883 23.0731 84.1242 22.8501 83.007 21.2896V26.8629H79.9906V10.0317H79.8789Z" fill="#313434"/>
<path d="M94.6257 10.0316H97.307V11.1463C97.8656 10.0316 98.9828 9.47431 100.212 9.58578V12.4839C97.5304 12.4839 97.5304 15.0476 97.5304 15.7163V22.5157H94.6257V10.0316Z" fill="#313434"/>
<path d="M42.8999 10.0316H45.5811V11.1463C46.1397 10.0316 47.2569 9.47431 48.4858 9.58578V12.4839C45.8046 12.4839 45.8046 15.0476 45.8046 15.7163V22.5157H42.8999V10.0316Z" fill="#313434"/>
<path d="M109.484 10.0318H112.166V11.1464C113.059 9.92033 114.4 9.58594 115.405 9.58594C116.634 9.58594 118.198 10.1433 118.98 11.5923C119.651 10.5891 120.88 9.58594 122.891 9.58594C125.907 9.58594 127.918 11.7038 127.918 15.1592V22.5159H125.125V15.828C125.125 14.7133 125.013 12.3726 122.667 12.3726C120.433 12.3726 120.209 14.7133 120.209 15.828V22.5159H117.305V15.828C117.305 14.7133 117.193 12.3726 114.847 12.3726C112.613 12.3726 112.389 14.7133 112.389 15.828V22.5159H109.484V10.0318Z" fill="#313434"/>
<path d="M133.057 16.4966C133.057 18.6145 134.509 20.175 136.744 20.175C138.866 20.175 140.319 18.6145 140.319 16.2737C140.319 14.0444 138.866 12.4839 136.744 12.4839C134.509 12.4839 133.057 14.1559 133.057 16.4966ZM143 22.6272H140.319V20.9552C138.866 22.9616 136.855 23.0731 136.185 23.0731C133.057 23.0731 130.152 20.5094 130.152 16.4966C130.152 12.5954 132.834 9.69727 136.297 9.69727C138.084 9.69727 139.425 10.4775 140.319 11.9266V10.0317H143V22.6272Z" fill="#313434"/>
<path d="M105.798 10.0317H102.893V22.6273H105.798V10.0317Z" fill="#313434"/>
<path d="M104.345 4.4585L106.468 6.57633L104.345 8.5827L102.334 6.57633L104.345 4.4585Z" fill="#313434"/>
<path d="M5.58594 4.1242V6.79936H0V19.9522H5.58594V6.79936L10.5016 4.01274V23.0733H13.1828V0L5.58594 4.1242ZM0 20.3981H5.58594L10.5016 23.1847H0V20.3981Z" fill="#981813"/>
<path d="M4.02187 30.0957L3.575 30.8759L2.45781 32.8823L1.45234 30.8759L1.00547 30.0957V33.8855H0V28.5352H1.22891L2.56953 31.0988L3.91016 28.5352H5.02734V33.8855H4.02187V30.0957Z" fill="#313434"/>
<path d="M8.9375 33.8855V28.5352H12.4008V29.4269H9.94297V30.7645H12.0656V31.6562H9.94297V32.9938H12.4008V33.8855H8.9375Z" fill="#313434"/>
<path d="M15.864 32.9935H16.3109L16.9812 31.6559C17.0929 31.5444 17.0929 31.433 17.2046 31.3215C17.3164 31.21 17.4281 31.21 17.5398 31.21C17.4281 31.21 17.3164 31.0986 17.2046 31.0986C17.0929 30.9871 17.0929 30.8756 16.9812 30.7642L16.4226 29.6495H15.9757V28.7578H16.4226C16.646 28.7578 16.7578 28.7578 16.9812 28.8693C17.0929 28.9807 17.2046 29.0922 17.3164 29.3151L18.0984 30.8756H18.8804V28.7578H19.8859V30.8756H20.6679L21.45 29.3151C21.5617 29.0922 21.6734 28.9807 21.7851 28.8693C21.8968 28.7578 22.1203 28.7578 22.3437 28.7578H22.7906V29.6495H22.3437L21.7851 30.7642C21.6734 30.8756 21.6734 30.9871 21.5617 31.0986C21.45 31.21 21.3382 31.21 21.2265 31.21C21.3382 31.21 21.45 31.3215 21.5617 31.3215C21.6734 31.433 21.7851 31.5444 21.7851 31.6559L22.4554 32.9935H22.9023V33.8852H22.3437C22.1203 33.8852 22.0085 33.8852 21.8968 33.7737C21.7851 33.6623 21.6734 33.5508 21.5617 33.3279L20.7796 31.6559H19.9976V33.8852H18.9921V31.6559H18.2101L17.4281 33.3279C17.3164 33.5508 17.2046 33.7737 17.0929 33.7737C16.9812 33.8852 16.7578 33.8852 16.646 33.8852H16.0875V32.9935H15.864Z" fill="#313434"/>
<path d="M26.4773 28.5352H27.4828V30.653H28.3765L29.2703 29.0925C29.382 28.8696 29.4937 28.7581 29.6054 28.6466C29.7171 28.5352 29.9406 28.5352 30.164 28.5352H30.6109V29.4269H30.164L29.4937 30.653C29.382 30.7645 29.382 30.8759 29.2703 30.9874C29.1585 31.0988 29.0468 31.0988 28.9351 31.0988C29.0468 31.0988 29.1585 31.2103 29.2703 31.2103C29.382 31.3218 29.4937 31.4332 29.4937 31.5447L30.164 32.8823H30.6109V33.774H30.0523C29.8289 33.774 29.7171 33.774 29.6054 33.6625C29.4937 33.5511 29.382 33.4396 29.2703 33.2167L28.3765 31.5447H27.4828V33.774H26.4773V28.5352Z" fill="#313434"/>
<path d="M36.0851 33.1051C36.4202 33.1051 36.7554 32.9937 36.9788 32.7707C37.2022 32.5478 37.314 32.2134 37.314 31.6561V30.8758C37.314 30.43 37.2022 30.0956 36.9788 29.7612C36.7554 29.5383 36.4202 29.4268 36.0851 29.4268C35.7499 29.4268 35.4147 29.5383 35.1913 29.7612C34.9679 29.9841 34.8562 30.3185 34.8562 30.8758V31.6561C34.8562 32.102 34.9679 32.4364 35.1913 32.7707C35.4147 32.8822 35.7499 33.1051 36.0851 33.1051ZM36.0851 33.9969C35.7499 33.9969 35.4147 33.8854 35.1913 33.7739C34.8562 33.6625 34.6327 33.4395 34.521 33.2166C34.2976 32.9937 34.1858 32.6593 34.0741 32.3249C33.9624 31.9905 33.9624 31.5446 33.9624 31.0988C33.9624 30.6529 33.9624 30.2071 34.0741 29.8727C34.1858 29.5383 34.2976 29.2039 34.521 28.9809C34.7444 28.758 34.9679 28.5351 35.1913 28.4236C35.5265 28.3121 35.7499 28.2007 36.0851 28.2007C36.4202 28.2007 36.7554 28.3121 36.9788 28.4236C37.314 28.5351 37.5374 28.758 37.6491 28.9809C37.8726 29.2039 37.9843 29.5383 38.096 29.8727C38.2077 30.2071 38.2077 30.6529 38.2077 31.0988C38.2077 31.5446 38.2077 31.9905 38.096 32.3249C37.9843 32.6593 37.8726 32.9937 37.6491 33.2166C37.4257 33.4395 37.2022 33.6625 36.9788 33.7739C36.7554 33.8854 36.4202 33.9969 36.0851 33.9969Z" fill="#313434"/>
<path d="M46.1398 30.0957L45.6929 30.8759L44.5757 32.8823L43.5703 30.8759L43.1234 30.0957V33.8855H42.1179V28.5352H43.2351L44.5757 31.0988H44.6875L46.0281 28.5352H47.0335V33.8855H46.1398V30.0957Z" fill="#313434"/>
<path d="M54.1835 31.6562H52.0609V33.8855H51.0554V28.5352H52.0609V30.7645H54.1835V28.5352H55.189V33.8855H54.1835V31.6562Z" fill="#313434"/>
<path d="M61.1102 29.4269L60.4398 31.6562H61.7805L61.1102 29.4269ZM62.4508 33.8855L62.0039 32.5479H60.1047L59.6578 33.8855H58.6523L60.4398 28.5352H61.6688L63.4562 33.8855H62.4508Z" fill="#313434"/>
<path d="M68.5954 29.4269V33.8855H67.5899V29.4269H66.0259V28.5352H70.0478V29.4269H68.5954Z" fill="#313434"/>
<path d="M76.7507 31.6562H74.5163V33.8855H73.6226V28.5352H74.5163V30.7645H76.7507V28.5352H77.7561V33.8855H76.7507V31.6562Z" fill="#313434"/>
<path d="M86.3587 28.5352H87.3642V33.8855H86.3587V28.5352ZM84.0126 32.9938C84.236 32.9938 84.3478 32.9938 84.4595 32.8823C84.5712 32.7708 84.5712 32.6594 84.5712 32.4364V32.102C84.5712 31.8791 84.4595 31.7676 84.4595 31.6562C84.3478 31.5447 84.236 31.5447 84.0126 31.5447H82.672V33.1052H84.0126V32.9938ZM81.6665 28.5352H82.672V30.5415H84.1243C84.3478 30.5415 84.5712 30.5415 84.7946 30.653C85.0181 30.7645 85.1298 30.8759 85.2415 30.9874C85.3532 31.0988 85.4649 31.3218 85.5767 31.5447C85.6884 31.7676 85.6884 31.9906 85.6884 32.2135C85.6884 32.4364 85.6884 32.6594 85.5767 32.8823C85.4649 33.1052 85.3532 33.2167 85.2415 33.4396C85.1298 33.5511 84.9064 33.6625 84.7946 33.774C84.5712 33.8855 84.3478 33.8855 84.1243 33.8855H81.6665V28.5352Z" fill="#313434"/>
<path d="M91.386 33.8855V28.5352H94.8493V29.4269H92.3914V30.7645H94.5141V31.6562H92.3914V32.9938H94.8493V33.8855H91.386Z" fill="#313434"/>
<path d="M110.937 32.9936V29.4267H109.261V30.3185C109.261 30.6529 109.261 30.9872 109.261 31.3216C109.261 31.5446 109.261 31.879 109.149 32.1019C109.149 32.3248 109.038 32.4363 109.038 32.6592C108.926 32.7707 108.926 32.8822 108.814 32.9936H110.937ZM107.138 32.9936H107.697C107.809 32.8822 107.92 32.7707 107.92 32.6592C108.032 32.5478 108.032 32.3248 108.144 32.1019C108.144 31.879 108.256 31.656 108.256 31.3216C108.256 30.9872 108.256 30.6529 108.256 30.3185V28.6465H111.831V33.1051H112.613V35.1115H111.719V33.9968H107.92V35.1115H107.027V32.9936H107.138Z" fill="#313434"/>
<path d="M117.305 32.9938H118.645C118.869 32.9938 118.981 32.9938 119.092 32.8823C119.204 32.7708 119.204 32.6594 119.204 32.4364V32.2135C119.204 31.9906 119.204 31.8791 119.092 31.7676C118.981 31.6562 118.869 31.6562 118.645 31.6562H117.305V32.9938ZM117.305 30.7645H118.534C118.757 30.7645 118.869 30.7645 118.981 30.653C119.092 30.5415 119.092 30.4301 119.092 30.2071V29.9842C119.092 29.7613 119.092 29.6498 118.981 29.5383C118.869 29.4269 118.757 29.4269 118.534 29.4269H117.305V30.7645ZM116.299 28.5352H118.757C118.981 28.5352 119.204 28.5352 119.316 28.6466C119.539 28.7581 119.651 28.7581 119.763 28.8696C119.874 28.981 119.986 29.0925 119.986 29.3154C120.098 29.5383 120.098 29.6498 120.098 29.8727C120.098 30.0957 120.098 30.2071 119.986 30.4301C119.986 30.5415 119.874 30.653 119.763 30.7645C119.651 30.8759 119.539 30.8759 119.427 30.9874C119.316 30.9874 119.204 31.0988 119.092 31.0988C119.204 31.0988 119.316 31.0989 119.427 31.2103C119.539 31.2103 119.651 31.3218 119.763 31.4332C119.874 31.5447 119.986 31.6562 120.098 31.7676C120.21 31.8791 120.21 32.102 120.21 32.325C120.21 32.5479 120.21 32.7708 120.098 32.8823C119.986 33.1052 119.986 33.2167 119.763 33.3281C119.651 33.4396 119.539 33.5511 119.316 33.6625C119.204 33.774 118.981 33.774 118.757 33.774H116.076V28.5352H116.299Z" fill="#313434"/>
<path d="M124.008 33.8855V28.5352H127.471V29.4269H125.013V30.7645H127.248V31.6562H125.013V32.9938H127.471V33.8855H124.008Z" fill="#313434"/>
<path d="M132.275 30.9874H133.504C133.727 30.9874 133.839 30.9874 133.951 30.8759C134.063 30.7645 134.062 30.653 134.062 30.4301V30.0957C134.062 29.8727 133.951 29.7613 133.951 29.6498C133.839 29.5383 133.727 29.5383 133.504 29.5383H132.275V30.9874ZM131.27 33.8855V28.5352H133.616C133.839 28.5352 134.062 28.5352 134.286 28.6466C134.509 28.7581 134.621 28.8696 134.733 28.981C134.845 29.0925 134.956 29.3154 135.068 29.5383C135.18 29.7613 135.18 29.9842 135.18 30.2071C135.18 30.4301 135.18 30.653 135.068 30.8759C134.956 31.0989 134.845 31.2103 134.733 31.4332C134.621 31.5447 134.398 31.6562 134.286 31.7676C134.062 31.8791 133.839 31.8791 133.616 31.8791H132.275V33.8855H131.27Z" fill="#313434"/>
<path d="M138.866 28.5352H139.76V31.3218L139.648 32.4364H139.76L140.207 31.4332L142.106 28.5352H143V33.8855H141.995V31.0988L142.106 29.9842L141.548 30.8759L139.76 33.8855H138.866V28.5352Z" fill="#313434"/>
</g>
<defs>
<clipPath id="clip0_1175_12588">
<rect width="143" height="35" fill="white"/>
</clipPath>
</defs>
</svg>
