<svg width="143" height="35" viewBox="0 0 143 35" fill="none" xmlns="http://www.w3.org/2000/svg">
<g clip-path="url(#clip0_1141_3720)">
<path d="M20.1102 13.2643H21.8977C22.6797 13.2643 24.4672 13.1529 24.4672 11.035C24.4672 8.91719 22.6797 8.80573 21.8977 8.80573H20.1102V13.2643ZM17.0938 5.79617H21.7859C27.0367 5.79617 27.707 9.47452 27.707 11.035C27.707 13.1529 26.5898 16.2739 21.7859 16.2739H20.1102V22.6274H17.0938V5.79617Z" fill="white"/>
<path d="M30.8348 16.3853C30.8348 18.3917 32.2871 20.1752 34.4098 20.1752C36.6441 20.1752 37.9848 18.3917 37.9848 16.3853C37.9848 14.379 36.6441 12.4841 34.4098 12.4841C32.2871 12.4841 30.8348 14.379 30.8348 16.3853ZM41.0012 16.3853C41.0012 20.0637 38.2082 23.0732 34.4098 23.0732C30.6113 23.0732 27.8184 20.0637 27.8184 16.3853C27.8184 12.707 30.6113 9.69745 34.4098 9.69745C38.3199 9.69745 41.0012 12.707 41.0012 16.3853Z" fill="white"/>
<path d="M52.0617 12.707H50.6094V10.0318H52.0617V5.79617H55.0781V10.0318H56.8656V12.707H55.0781V22.6274H52.0617V12.707Z" fill="white"/>
<path d="M60.8871 16.4968C60.8871 18.6146 62.3395 20.1752 64.5738 20.1752C66.6965 20.1752 68.1488 18.6146 68.1488 16.2739C68.1488 14.0446 66.6965 12.4841 64.5738 12.4841C62.3395 12.4841 60.8871 14.156 60.8871 16.4968ZM70.8301 22.6274H68.1488V20.9554C66.6965 22.9618 64.6855 23.0732 64.0152 23.0732C60.8871 23.0732 57.9824 20.5096 57.9824 16.4968C57.9824 12.5955 60.6637 9.69745 64.127 9.69745C65.9145 9.69745 67.2551 10.4777 68.1488 11.9267V10.0318H70.8301V22.6274Z" fill="white"/>
<path d="M82.6719 16.3853C82.6719 18.8376 84.2359 20.1752 86.1352 20.1752C88.2578 20.1752 89.8219 18.5032 89.8219 16.2739C89.8219 14.6019 88.8164 12.4841 86.2469 12.4841C84.2359 12.4841 82.6719 14.156 82.6719 16.3853ZM79.8789 10.0318H82.6719V11.7038C83.6773 9.92038 85.6883 9.69745 86.6937 9.69745C90.0453 9.69745 92.95 12.3726 92.95 16.3853C92.95 19.8408 90.7156 23.0732 86.6937 23.0732C85.6883 23.0732 84.1242 22.8503 83.007 21.2898V26.8631H79.9906V10.0318H79.8789Z" fill="white"/>
<path d="M94.627 10.0318H97.3082V11.1465C97.8668 10.0318 98.984 9.47452 100.213 9.58599V12.4841C97.5316 12.4841 97.5316 15.0478 97.5316 15.7166V22.5159H94.627V10.0318Z" fill="white"/>
<path d="M42.9004 10.0318H45.5816V11.1465C46.1402 10.0318 47.2574 9.47452 48.4863 9.58599V12.4841C45.8051 12.4841 45.8051 15.0478 45.8051 15.7166V22.5159H42.9004V10.0318Z" fill="white"/>
<path d="M109.484 10.0319H112.166V11.1465C113.059 9.92039 114.4 9.586 115.405 9.586C116.634 9.586 118.198 10.1433 118.98 11.5924C119.651 10.5892 120.88 9.586 122.891 9.586C125.907 9.586 127.918 11.7038 127.918 15.1592V22.5159H125.125V15.828C125.125 14.7134 125.013 12.3726 122.667 12.3726C120.433 12.3726 120.209 14.7134 120.209 15.828V22.5159H117.305V15.828C117.305 14.7134 117.193 12.3726 114.847 12.3726C112.613 12.3726 112.389 14.7134 112.389 15.828V22.5159H109.484V10.0319Z" fill="white"/>
<path d="M133.057 16.4968C133.057 18.6146 134.509 20.1752 136.744 20.1752C138.866 20.1752 140.319 18.6146 140.319 16.2739C140.319 14.0446 138.866 12.4841 136.744 12.4841C134.509 12.4841 133.057 14.156 133.057 16.4968ZM143 22.6274H140.319V20.9554C138.866 22.9618 136.855 23.0732 136.185 23.0732C133.057 23.0732 130.152 20.5096 130.152 16.4968C130.152 12.5955 132.834 9.69745 136.297 9.69745C138.084 9.69745 139.425 10.4777 140.319 11.9267V10.0318H143V22.6274Z" fill="white"/>
<path d="M105.797 10.0319H102.893V22.6274H105.797V10.0319Z" fill="white"/>
<path d="M104.345 4.45859L106.468 6.57642L104.345 8.58279L102.334 6.57642L104.345 4.45859Z" fill="white"/>
<path d="M5.58594 4.1242V6.79936H0V19.9522H5.58594V6.79936L10.5016 4.01274V23.0733H13.1828V0L5.58594 4.1242ZM0 20.3981H5.58594L10.5016 23.1847H0V20.3981Z" fill="#981813"/>
<path d="M4.02187 30.0955L3.575 30.8758L2.45781 32.8822L1.45234 30.8758L1.00547 30.0955V33.8854H0V28.535H1.22891L2.56953 31.0987L3.91016 28.535H5.02734V33.8854H4.02187V30.0955Z" fill="white"/>
<path d="M8.9375 33.8854V28.535H12.4008V29.4268H9.94297V30.7643H12.0656V31.6561H9.94297V32.9936H12.4008V33.8854H8.9375Z" fill="white"/>
<path d="M15.8633 32.9936H16.3102L16.9805 31.656C17.0922 31.5446 17.0922 31.4331 17.2039 31.3216C17.3156 31.2102 17.4273 31.2102 17.5391 31.2102C17.4273 31.2102 17.3156 31.0987 17.2039 31.0987C17.0922 30.9872 17.0922 30.8758 16.9805 30.7643L16.4219 29.6497H15.975V28.7579H16.4219C16.6453 28.7579 16.757 28.7579 16.9805 28.8694C17.0922 28.9809 17.2039 29.0923 17.3156 29.3153L18.0977 30.8758H18.8797V28.7579H19.8852V30.8758H20.6672L21.4492 29.3153C21.5609 29.0923 21.6727 28.9809 21.7844 28.8694C21.8961 28.7579 22.1195 28.7579 22.343 28.7579H22.7898V29.6497H22.343L21.7844 30.7643C21.6727 30.8758 21.6727 30.9872 21.5609 31.0987C21.4492 31.2102 21.3375 31.2102 21.2258 31.2102C21.3375 31.2102 21.4492 31.3216 21.5609 31.3216C21.6727 31.4331 21.7844 31.5446 21.7844 31.656L22.4547 32.9936H22.9016V33.8853H22.343C22.1195 33.8853 22.0078 33.8853 21.8961 33.7739C21.7844 33.6624 21.6727 33.5509 21.5609 33.328L20.7789 31.656H19.9969V33.8853H18.9914V31.656H18.2094L17.4273 33.328C17.3156 33.5509 17.2039 33.7739 17.0922 33.7739C16.9805 33.8853 16.757 33.8853 16.6453 33.8853H16.0867V32.9936H15.8633Z" fill="white"/>
<path d="M26.4766 28.535H27.482V30.6529H28.3758L29.2695 29.0924C29.3812 28.8694 29.493 28.758 29.6047 28.6465C29.7164 28.535 29.9398 28.535 30.1633 28.535H30.6102V29.4268H30.1633L29.493 30.6529C29.3812 30.7643 29.3812 30.8758 29.2695 30.9873C29.1578 31.0987 29.0461 31.0987 28.9344 31.0987C29.0461 31.0987 29.1578 31.2102 29.2695 31.2102C29.3812 31.3217 29.493 31.4331 29.493 31.5446L30.1633 32.8822H30.6102V33.7739H30.0516C29.8281 33.7739 29.7164 33.7739 29.6047 33.6624C29.493 33.551 29.3812 33.4395 29.2695 33.2166L28.3758 31.5446H27.482V33.7739H26.4766V28.535Z" fill="white"/>
<path d="M36.0836 33.1051C36.4187 33.1051 36.7539 32.9936 36.9773 32.7707C37.2008 32.5478 37.3125 32.2134 37.3125 31.656V30.8758C37.3125 30.4299 37.2008 30.0955 36.9773 29.7611C36.7539 29.5382 36.4187 29.4267 36.0836 29.4267C35.7484 29.4267 35.4133 29.5382 35.1898 29.7611C34.9664 29.9841 34.8547 30.3185 34.8547 30.8758V31.656C34.8547 32.1019 34.9664 32.4363 35.1898 32.7707C35.4133 32.8822 35.7484 33.1051 36.0836 33.1051ZM36.0836 33.9968C35.7484 33.9968 35.4133 33.8853 35.1898 33.7739C34.8547 33.6624 34.6313 33.4395 34.5195 33.2165C34.2961 32.9936 34.1844 32.6592 34.0727 32.3248C33.9609 31.9904 33.9609 31.5446 33.9609 31.0987C33.9609 30.6529 33.9609 30.207 34.0727 29.8726C34.1844 29.5382 34.2961 29.2038 34.5195 28.9809C34.743 28.7579 34.9664 28.535 35.1898 28.4236C35.525 28.3121 35.7484 28.2006 36.0836 28.2006C36.4187 28.2006 36.7539 28.3121 36.9773 28.4236C37.3125 28.535 37.5359 28.7579 37.6477 28.9809C37.8711 29.2038 37.9828 29.5382 38.0945 29.8726C38.2062 30.207 38.2063 30.6529 38.2063 31.0987C38.2063 31.5446 38.2062 31.9904 38.0945 32.3248C37.9828 32.6592 37.8711 32.9936 37.6477 33.2165C37.4242 33.4395 37.2008 33.6624 36.9773 33.7739C36.7539 33.8853 36.4187 33.9968 36.0836 33.9968Z" fill="white"/>
<path d="M46.1391 30.0955L45.6922 30.8758L44.575 32.8822L43.5695 30.8758L43.1227 30.0955V33.8854H42.1172V28.535H43.2344L44.575 31.0987H44.6867L46.0273 28.535H47.0328V33.8854H46.1391V30.0955Z" fill="white"/>
<path d="M54.1828 31.6561H52.0602V33.8854H51.0547V28.535H52.0602V30.7643H54.1828V28.535H55.1883V33.8854H54.1828V31.6561Z" fill="white"/>
<path d="M61.1102 29.4268L60.4398 31.6561H61.7805L61.1102 29.4268ZM62.4508 33.8854L62.0039 32.5478H60.1047L59.6578 33.8854H58.6523L60.4398 28.535H61.6688L63.4562 33.8854H62.4508Z" fill="white"/>
<path d="M68.5949 29.4268V33.8854H67.5895V29.4268H66.0254V28.535H70.0473V29.4268H68.5949Z" fill="white"/>
<path d="M76.7512 31.6561H74.5168V33.8854H73.623V28.535H74.5168V30.7643H76.7512V28.535H77.7566V33.8854H76.7512V31.6561Z" fill="white"/>
<path d="M86.3582 28.535H87.3637V33.8854H86.3582V28.535ZM84.0121 32.9936C84.2355 32.9936 84.3473 32.9936 84.459 32.8822C84.5707 32.7707 84.5707 32.6592 84.5707 32.4363V32.1019C84.5707 31.879 84.459 31.7675 84.459 31.6561C84.3473 31.5446 84.2355 31.5446 84.0121 31.5446H82.6715V33.1051H84.0121V32.9936ZM81.666 28.535H82.6715V30.5414H84.1238C84.3473 30.5414 84.5707 30.5414 84.7941 30.6529C85.0176 30.7643 85.1293 30.8758 85.241 30.9873C85.3527 31.0987 85.4645 31.3217 85.5762 31.5446C85.6879 31.7675 85.6879 31.9904 85.6879 32.2134C85.6879 32.4363 85.6879 32.6592 85.5762 32.8822C85.4645 33.1051 85.3527 33.2166 85.241 33.4395C85.1293 33.551 84.9059 33.6624 84.7941 33.7739C84.5707 33.8854 84.3473 33.8854 84.1238 33.8854H81.666V28.535Z" fill="white"/>
<path d="M91.3867 33.8854V28.535H94.85V29.4268H92.3922V30.7643H94.5148V31.6561H92.3922V32.9936H94.85V33.8854H91.3867Z" fill="white"/>
<path d="M110.938 32.9936V29.4268H109.262V30.3185C109.262 30.6529 109.262 30.9873 109.262 31.3217C109.262 31.5446 109.262 31.879 109.15 32.1019C109.15 32.3249 109.038 32.4363 109.038 32.6593C108.927 32.7707 108.927 32.8822 108.815 32.9936H110.938ZM107.139 32.9936H107.698C107.809 32.8822 107.921 32.7707 107.921 32.6593C108.033 32.5478 108.033 32.3249 108.145 32.1019C108.145 31.879 108.256 31.6561 108.256 31.3217C108.256 30.9873 108.256 30.6529 108.256 30.3185V28.6465H111.831V33.1051H112.613V35.1115H111.72V33.9968H107.921V35.1115H107.027V32.9936H107.139Z" fill="white"/>
<path d="M117.305 32.9936H118.646C118.869 32.9936 118.981 32.9936 119.093 32.8822C119.204 32.7707 119.204 32.6592 119.204 32.4363V32.2134C119.204 31.9904 119.204 31.879 119.093 31.7675C118.981 31.6561 118.869 31.6561 118.646 31.6561H117.305V32.9936ZM117.305 30.7643H118.534C118.757 30.7643 118.869 30.7643 118.981 30.6529C119.093 30.5414 119.093 30.4299 119.093 30.207V29.9841C119.093 29.7611 119.093 29.6497 118.981 29.5382C118.869 29.4268 118.757 29.4268 118.534 29.4268H117.305V30.7643ZM116.3 28.535H118.757C118.981 28.535 119.204 28.535 119.316 28.6465C119.539 28.758 119.651 28.758 119.763 28.8694C119.875 28.9809 119.986 29.0924 119.986 29.3153C120.098 29.5382 120.098 29.6497 120.098 29.8726C120.098 30.0955 120.098 30.207 119.986 30.4299C119.986 30.5414 119.875 30.6529 119.763 30.7643C119.651 30.8758 119.539 30.8758 119.428 30.9873C119.316 30.9873 119.204 31.0987 119.093 31.0987C119.204 31.0987 119.316 31.0987 119.428 31.2102C119.539 31.2102 119.651 31.3217 119.763 31.4331C119.875 31.5446 119.986 31.6561 120.098 31.7675C120.21 31.879 120.21 32.1019 120.21 32.3248C120.21 32.5478 120.21 32.7707 120.098 32.8822C119.986 33.1051 119.986 33.2166 119.763 33.328C119.651 33.4395 119.539 33.551 119.316 33.6624C119.204 33.7739 118.981 33.7739 118.757 33.7739H116.076V28.535H116.3Z" fill="white"/>
<path d="M124.008 33.8854V28.535H127.471V29.4268H125.013V30.7643H127.248V31.6561H125.013V32.9936H127.471V33.8854H124.008Z" fill="white"/>
<path d="M132.275 30.9873H133.504C133.727 30.9873 133.839 30.9873 133.951 30.8758C134.063 30.7643 134.062 30.6529 134.062 30.4299V30.0955C134.062 29.8726 133.951 29.7611 133.951 29.6497C133.839 29.5382 133.727 29.5382 133.504 29.5382H132.275V30.9873ZM131.27 33.8854V28.535H133.616C133.839 28.535 134.062 28.535 134.286 28.6465C134.509 28.758 134.621 28.8694 134.733 28.9809C134.845 29.0924 134.956 29.3153 135.068 29.5382C135.18 29.7611 135.18 29.9841 135.18 30.207C135.18 30.4299 135.18 30.6529 135.068 30.8758C134.956 31.0987 134.845 31.2102 134.733 31.4331C134.621 31.5446 134.398 31.6561 134.286 31.7675C134.062 31.879 133.839 31.879 133.616 31.879H132.275V33.8854H131.27Z" fill="white"/>
<path d="M138.867 28.535H139.761V31.3217L139.649 32.4363H139.761L140.208 31.4331L142.107 28.535H143.001V33.8854H141.995V31.0987L142.107 29.9841L141.548 30.8758L139.761 33.8854H138.867V28.535Z" fill="white"/>
</g>
<defs>
<clipPath id="clip0_1141_3720">
<rect width="143" height="35" fill="white"/>
</clipPath>
</defs>
</svg>
