<svg width="124" height="20" viewBox="0 0 124 20" fill="none" xmlns="http://www.w3.org/2000/svg">
<path fill-rule="evenodd" clip-rule="evenodd" d="M33.3117 0H60.7877V6.10659H47.0497V7.67118H60.7877V12.3252H47.0497V13.8934H60.7877V20H33.3117V0Z" fill="black"/>
<path fill-rule="evenodd" clip-rule="evenodd" d="M64.8202 0H92.2963V6.10659H78.5583V7.67118H92.2963V13.8934H78.5583V20H64.8202V0Z" fill="black"/>
<path fill-rule="evenodd" clip-rule="evenodd" d="M96.3288 0H123.805V6.10659H116.936V20H103.198V6.10659H96.3288V0Z" fill="black"/>
<path fill-rule="evenodd" clip-rule="evenodd" d="M13.9765 20C23.1762 20 31.0967 17.7164 31.0967 10.0018C31.0967 2.28726 23.1762 0 13.9765 0H0V7.2159H13.738C18.1536 7.2159 19.7615 8.93225 19.7615 11.0497C19.7615 13.1671 18.0416 14.8835 13.738 14.8835V9.54291H0V19.9964H13.9765V20Z" fill="black"/>
</svg>
