<svg width="36" height="49" viewBox="0 0 36 49" fill="none" xmlns="http://www.w3.org/2000/svg">
<g clip-path="url(#clip0_1407_63)">
<path d="M36 17.9418C36 27.8499 21.2376 49 18 49C14.9992 49 0 27.8499 0 17.9418C0 8.03368 8.05974 0 18 0C27.9403 0 36 8.03368 36 17.9418Z" fill="#991913"/>
<path d="M17.9997 30.7494C25.4176 30.7494 31.431 24.7554 31.431 17.3615C31.431 9.96759 25.4176 3.97363 17.9997 3.97363C10.5818 3.97363 4.56836 9.96759 4.56836 17.3615C4.56836 24.7554 10.5818 30.7494 17.9997 30.7494Z" fill="white"/>
<path d="M12.4609 23.9929V26.271H21.2383L17.1386 23.9929H12.4633H12.4609ZM17.1291 10.4303V12.6683H12.4609V23.6388H17.1291V12.6683H17.1315L21.2383 10.3854V26.271H23.538V6.95996L17.1291 10.4303Z" fill="#991913"/>
</g>
<defs>
<clipPath id="clip0_1407_63">
<rect width="36" height="49" fill="white"/>
</clipPath>
</defs>
</svg>
