<svg width="52" height="85" viewBox="0 0 52 85" fill="none" xmlns="http://www.w3.org/2000/svg">
<g clip-path="url(#clip0_1600_10687)">
<path d="M50.7257 1.09158V84.1591H12.8567V1.09158H50.7257ZM51.5668 0.250488H12.0156V85.0002H51.5668V0.250488Z" fill="black"/>
<path d="M51.8171 0H0V3.82495H51.8171V0Z" fill="black"/>
<path d="M51.3738 8.87158H12.2031" stroke="black" stroke-width="0.84" stroke-miterlimit="10"/>
<path d="M51.3738 79.0522H12.2031" stroke="black" stroke-width="0.84" stroke-miterlimit="10"/>
<path d="M21.8556 44.5977H12.2031" stroke="black" stroke-width="0.84" stroke-miterlimit="10"/>
<path d="M51.3712 44.5977H41.7188" stroke="black" stroke-width="0.84" stroke-miterlimit="10"/>
<path d="M31.7891 17.7231V4.04541" stroke="black" stroke-width="0.84" stroke-miterlimit="10"/>
<path d="M31.7891 85V71.3223" stroke="black" stroke-width="0.84" stroke-miterlimit="10"/>
<path d="M41.1933 28.1466C41.1933 22.9484 36.9815 18.7344 31.7861 18.7344C26.5906 18.7344 22.3789 22.9484 22.3789 28.1466V63.7126C22.3789 68.9108 26.5906 73.1248 31.7861 73.1248C36.9815 73.1248 41.1933 68.9108 41.1933 63.7126V28.1466Z" stroke="black" stroke-width="0.82" stroke-miterlimit="10"/>
</g>
<defs>
<clipPath id="clip0_1600_10687">
<rect width="51.8171" height="85" fill="white"/>
</clipPath>
</defs>
</svg>
