<svg width="52" height="85" viewBox="0 0 52 85" fill="none" xmlns="http://www.w3.org/2000/svg">
<g clip-path="url(#clip0_1600_10700)">
<path d="M51.2227 84.5921L51.2227 0.407715L11.9353 0.407715L11.9353 84.5921H51.2227Z" stroke="black" stroke-width="0.82" stroke-miterlimit="10"/>
<path d="M51.4715 0.15918H0V3.95862H51.4715V0.15918Z" fill="black"/>
<path d="M51.0344 8.97119H12.125" stroke="black" stroke-width="0.82" stroke-miterlimit="10"/>
<path d="M51.0344 78.6841H12.125" stroke="black" stroke-width="0.82" stroke-miterlimit="10"/>
<path d="M21.7131 44.4595H12.125" stroke="black" stroke-width="0.82" stroke-miterlimit="10"/>
<path d="M51.0334 44.459H41.4453" stroke="black" stroke-width="0.82" stroke-miterlimit="10"/>
<path d="M21.7131 25.2632H12.125" stroke="black" stroke-width="0.82" stroke-miterlimit="10"/>
<path d="M51.0334 25.2632H41.4453" stroke="black" stroke-width="0.82" stroke-miterlimit="10"/>
<path d="M21.7131 63.5063H12.125" stroke="black" stroke-width="0.82" stroke-miterlimit="10"/>
<path d="M51.0334 63.5063H41.4453" stroke="black" stroke-width="0.82" stroke-miterlimit="10"/>
<path d="M31.5781 17.7637V4.17725" stroke="black" stroke-width="0.82" stroke-miterlimit="10"/>
<path d="M31.5781 84.5923V71.0059" stroke="black" stroke-width="0.82" stroke-miterlimit="10"/>
<path d="M31.5768 54.6047C36.9436 54.6047 41.2942 50.2541 41.2942 44.8873C41.2942 39.5206 36.9436 35.1699 31.5768 35.1699C26.21 35.1699 21.8594 39.5206 21.8594 44.8873C21.8594 50.2541 26.21 54.6047 31.5768 54.6047Z" stroke="black" stroke-width="0.82" stroke-miterlimit="10"/>
<path d="M31.5775 29.2515C35.2576 29.2515 38.6294 30.5246 41.295 32.6531V17.7637H21.7109V32.7625C24.4064 30.5743 27.8378 29.2515 31.5775 29.2515Z" stroke="black" stroke-width="0.82" stroke-miterlimit="10"/>
<path d="M31.4283 59.5178C27.7483 59.5178 24.3765 58.2447 21.7109 56.1162V71.0057H41.295V56.0068C38.5995 58.195 35.1681 59.5178 31.4283 59.5178Z" stroke="black" stroke-width="0.82" stroke-miterlimit="10"/>
</g>
<defs>
<clipPath id="clip0_1600_10700">
<rect width="51.6306" height="85" fill="white"/>
</clipPath>
</defs>
</svg>
