<svg width="170" height="30" viewBox="0 0 170 30" fill="none" xmlns="http://www.w3.org/2000/svg">
<g clip-path="url(#clip0_1630_199)">
<path d="M22.0377 8.54346L67.2539 8.54346V4.93761L22.0377 4.93761V8.54346Z" fill="black"/>
<path d="M25.7486 14.0171L70.9648 14.0171V10.4112L25.7486 10.4112V14.0171Z" fill="black"/>
<path d="M22.0551 0H0V20.8067H22.0551V0Z" fill="black"/>
<path d="M170 0H147.945V20.8067H170V0Z" fill="black"/>
<path d="M108.338 26.5894H61.625" stroke="black" stroke-width="0.84" stroke-miterlimit="10"/>
<path d="M107.332 23.1782L113.252 26.5892L107.332 30.0001V23.1782Z" fill="black"/>
<path d="M62.619 23.1782L56.7148 26.5892L62.619 30.0001V23.1782Z" fill="black"/>
<path d="M147.943 4.9375H102.727V8.54335H147.943V4.9375Z" fill="black"/>
<path d="M144.251 10.4111H99.0352V14.017H144.251V10.4111Z" fill="black"/>
</g>
<defs>
<clipPath id="clip0_1630_199">
<rect width="170" height="30" fill="white"/>
</clipPath>
</defs>
</svg>
